<svg width="46" height="46" viewBox="0 0 46 46" fill="none" xmlns="http://www.w3.org/2000/svg">
<g id="Action/dashboard">
<path id="Icon" fill-rule="evenodd" clip-rule="evenodd" d="M10.7345 24.5333H19.9345C20.7778 24.5333 21.4678 23.8433 21.4678 23V10.7333C21.4678 9.88995 20.7778 9.19995 19.9345 9.19995H10.7345C9.89117 9.19995 9.20117 9.88995 9.20117 10.7333V23C9.20117 23.8433 9.89117 24.5333 10.7345 24.5333ZM10.7345 36.7999H19.9345C20.7778 36.7999 21.4678 36.1099 21.4678 35.2666V29.1333C21.4678 28.2899 20.7778 27.5999 19.9345 27.5999H10.7345C9.89117 27.5999 9.20117 28.2899 9.20117 29.1333V35.2666C9.20117 36.1099 9.89117 36.7999 10.7345 36.7999ZM26.0678 36.7999H35.2678C36.1112 36.7999 36.8012 36.11 36.8012 35.2666V23C36.8012 22.1566 36.1112 21.4666 35.2678 21.4666H26.0678C25.2245 21.4666 24.5345 22.1566 24.5345 23V35.2666C24.5345 36.11 25.2245 36.7999 26.0678 36.7999ZM24.5345 10.7333V16.8666C24.5345 17.71 25.2245 18.4 26.0678 18.4H35.2678C36.1112 18.4 36.8012 17.71 36.8012 16.8666V10.7333C36.8012 9.88995 36.1112 9.19995 35.2678 9.19995H26.0678C25.2245 9.19995 24.5345 9.88995 24.5345 10.7333Z" fill="#ADADAD"/>
</g>
</svg>
