<svg width="252" height="119" viewBox="0 0 252 119" fill="none" xmlns="http://www.w3.org/2000/svg">
<path d="M35.003 19.0597C33.016 19.0578 31.0515 19.4876 29.2407 20.3205C27.4299 21.1533 25.8145 22.37 24.5024 23.8893C22.6204 21.7194 20.1344 20.1842 17.3748 19.4876C14.6152 18.791 11.7127 18.9661 9.05319 19.9897C6.39368 21.0132 4.10311 22.8366 2.48599 25.2176C0.868866 27.5986 0.00177961 30.4243 0 33.3192V55.3966H7.00243V33.3192C7.00243 31.4283 7.74018 29.6148 9.05339 28.2777C10.3666 26.9406 12.1477 26.1894 14.0049 26.1894C15.862 26.1894 17.6431 26.9406 18.9563 28.2777C20.2695 29.6148 21.0073 31.4283 21.0073 33.3192V55.3966H28.0097V33.3192C28.0097 31.4283 28.7475 29.6148 30.0607 28.2777C31.3739 26.9406 33.155 26.1894 35.0121 26.1894C36.8693 26.1894 38.6504 26.9406 39.9636 28.2777C41.2768 29.6148 42.0146 31.4283 42.0146 33.3192V55.3966H49.017V33.3192C49.017 29.5373 47.5415 25.9104 44.9151 23.2362C42.2887 20.562 38.7265 19.0597 35.0121 19.0597" fill="#00519D"/>
<path d="M107.855 55.3873V48.2575C105.998 48.2575 104.217 47.5063 102.904 46.1693C101.591 44.8322 100.853 43.0187 100.853 41.1278V0.88501H93.8506V41.1309C93.8506 44.9127 95.3261 48.5397 97.9525 51.2138C100.579 53.888 104.141 55.3904 107.855 55.3904" fill="#00519D"/>
<path d="M126.525 19.0597C124.066 19.0561 121.65 19.716 119.522 20.9723V0.971802H112.52V55.3873H119.522V33.3191C119.522 31.4282 120.26 29.6147 121.573 28.2777C122.887 26.9406 124.668 26.1894 126.525 26.1894C128.382 26.1894 130.163 26.9406 131.476 28.2777C132.79 29.6147 133.527 31.4282 133.527 33.3191V55.3966H140.53V33.3191C140.53 29.5373 139.054 25.9103 136.428 23.2362C133.801 20.562 130.239 19.0597 126.525 19.0597" fill="#00519D"/>
<path d="M88.8395 33.7283C88.0343 29.6659 85.883 26.0084 82.7456 23.3681C79.6083 20.7278 75.6754 19.2649 71.6053 19.2244C67.5352 19.1838 63.575 20.5681 60.3875 23.1454C57.2001 25.7228 54.9789 29.3367 54.0958 33.3823C53.2128 37.4279 53.7214 41.6596 55.5366 45.3689C57.3518 49.0783 60.3634 52.0402 64.0672 53.7588C67.771 55.4774 71.9423 55.8484 75.8826 54.8097C79.823 53.7709 83.2934 51.3856 85.7127 48.0528L80.0895 43.8215C78.9232 45.4263 77.3488 46.6766 75.536 47.4375C73.7232 48.1983 71.7409 48.441 69.8026 48.1392C67.8644 47.8375 66.0438 47.0028 64.5372 45.7251C63.0305 44.4475 61.895 42.7754 61.2529 40.889H88.8395C89.3022 38.5253 89.3022 36.0919 88.8395 33.7283ZM71.4308 26.3474C73.67 26.3479 75.8533 27.0591 77.6769 28.382C79.5006 29.7048 80.8738 31.5736 81.6057 33.7283H61.2529C61.9857 31.5736 63.3597 29.705 65.1837 28.3822C67.0078 27.0594 69.1914 26.3482 71.4308 26.3474" fill="#00519D"/>
<path d="M163.159 19.0596C159.63 19.0596 156.18 20.1251 153.246 22.1215C150.311 24.1179 148.024 26.9554 146.674 30.2753C145.323 33.5951 144.97 37.2482 145.658 40.7725C146.347 44.2968 148.046 47.5341 150.542 50.075C153.037 52.616 156.217 54.3463 159.678 55.0474C163.14 55.7484 166.727 55.3886 169.988 54.0135C173.249 52.6383 176.035 50.3096 177.996 47.3219C179.957 44.3341 181.003 40.8214 181.003 37.228C181.003 32.4094 179.123 27.7882 175.777 24.381C172.431 20.9737 167.892 19.0596 163.159 19.0596V19.0596ZM163.159 48.2729C161.013 48.2729 158.915 47.6249 157.131 46.4108C155.346 45.1967 153.956 43.471 153.134 41.4521C152.313 39.4331 152.099 37.2116 152.517 35.0684C152.936 32.9252 153.97 30.9567 155.488 29.4117C157.006 27.8667 158.939 26.8148 161.044 26.3888C163.149 25.9629 165.331 26.1821 167.314 27.0188C169.297 27.8555 170.991 29.272 172.183 31.0892C173.375 32.9065 174.011 35.0428 174.01 37.228C174.008 40.1565 172.863 42.9642 170.829 45.0341C168.794 47.104 166.036 48.2667 163.159 48.2667" fill="#00519D"/>
<path d="M192.381 62.8333H185.382V98.9935H192.381V62.8333Z" fill="#00519D"/>
<path d="M107.572 77.4399C106.77 73.3964 104.629 69.7561 101.506 67.1283C98.3828 64.5006 94.468 63.0449 90.4168 63.0049C86.3656 62.9649 82.4238 64.343 79.2514 66.9087C76.0789 69.4743 73.8683 73.0716 72.9896 77.0985C72.1109 81.1254 72.6175 85.3374 74.4245 89.0294C76.2315 92.7214 79.2293 95.6694 82.916 97.3798C86.6027 99.0903 90.7546 99.4593 94.6766 98.4253C98.5986 97.3912 102.053 95.0167 104.461 91.6994L98.865 87.4866C97.7049 89.0845 96.1383 90.3296 94.3342 91.0874C92.5302 91.8452 90.5571 92.0871 88.6279 91.7869C86.6988 91.4867 84.8867 90.6558 83.3873 89.3839C81.8879 88.112 80.7581 86.4474 80.1198 84.5696H107.572C108.036 82.2164 108.036 79.7931 107.572 77.4399V77.4399ZM90.2489 70.0963C92.4772 70.0961 94.6501 70.8034 96.4651 72.1197C98.2801 73.4359 99.6468 75.2956 100.375 77.4399H80.1198C80.8489 75.2956 82.2163 73.4361 84.0317 72.1199C85.8471 70.8037 88.0203 70.0964 90.2489 70.0963Z" fill="#00519D"/>
<path d="M126.525 62.6596C122.811 62.6596 119.248 64.1619 116.622 66.8361C113.996 69.5103 112.52 73.1372 112.52 76.9191V98.9996H119.522V76.916C119.522 75.0251 120.26 73.2116 121.573 71.8745C122.887 70.5374 124.668 69.7862 126.525 69.7862C128.382 69.7862 130.163 70.5374 131.476 71.8745C132.79 73.2116 133.527 75.0251 133.527 76.916V98.9965H140.53V76.916C140.53 73.1341 139.054 69.5072 136.428 66.833C133.801 64.1588 130.239 62.6565 126.525 62.6565" fill="#00519D"/>
<path d="M214.917 62.6597C211.388 62.6597 207.938 63.7252 205.003 65.7216C202.069 67.718 199.782 70.5555 198.431 73.8754C197.08 77.1952 196.727 80.8483 197.416 84.3726C198.104 87.8969 199.804 91.1342 202.299 93.6751C204.795 96.216 207.974 97.9464 211.436 98.6475C214.897 99.3485 218.485 98.9887 221.745 97.6136C225.006 96.2384 227.793 93.9097 229.754 90.922C231.714 87.9342 232.761 84.4215 232.761 80.8281C232.761 78.4422 232.299 76.0797 231.402 73.8754C230.506 71.6711 229.191 69.6682 227.534 67.9811C225.877 66.294 223.91 64.9557 221.745 64.0427C219.58 63.1296 217.26 62.6597 214.917 62.6597V62.6597ZM214.917 91.8761C212.771 91.8761 210.673 91.2282 208.888 90.0142C207.104 88.8002 205.713 87.0748 204.892 85.056C204.071 83.0372 203.856 80.8159 204.275 78.6728C204.693 76.5297 205.727 74.5611 207.244 73.016C208.762 71.4709 210.695 70.4187 212.8 69.9924C214.905 69.5661 217.086 69.7849 219.069 70.6211C221.052 71.4573 222.747 72.8733 223.939 74.6902C225.131 76.507 225.767 78.643 225.767 80.8281C225.767 83.7582 224.624 86.5683 222.589 88.6402C220.554 90.7121 217.795 91.8761 214.917 91.8761Z" fill="#00519D"/>
<path d="M173.274 63.109L163.157 88.9869L153.037 63.109H145.31L160.015 98.9964H166.296L180.998 63.109H173.274Z" fill="#00519D"/>
<path d="M199.667 19.0596V26.1893C197.809 26.1893 196.028 26.9405 194.715 28.2776C193.402 29.6147 192.664 31.4281 192.664 33.3191V55.3965H185.662V33.3191C185.662 29.5372 187.137 25.9102 189.764 23.2361C192.39 20.5619 195.952 19.0596 199.667 19.0596" fill="#00519D"/>
<path d="M251.387 62.1171V62.083C251.202 59.9178 250.424 57.849 249.14 56.1126L249.095 56.0475C245.362 51.0877 239.239 50.6351 233.61 50.4956C236.308 46.4658 239.833 40.7093 239.955 33.2881C240.083 28.0431 238.5 23.4708 235.504 20.4205C234.375 19.2878 233.055 18.3712 231.607 17.7143C230.19 17.064 228.655 16.7239 227.101 16.7161C225.533 16.6666 223.972 16.9491 222.516 17.5456C221.061 18.1422 219.743 19.0398 218.646 20.1818C216.274 22.5966 215.535 25.4516 214.883 27.978L214.862 28.0772C214.434 29.9737 213.623 31.7589 212.481 33.3191L210.822 35.5727L210.289 36.2206L210.188 36.3508C210.076 36.5027 209.945 36.6608 209.796 36.8375C209.647 37.0142 209.424 37.2746 209.217 37.5505C207.742 39.3091 206.153 40.966 204.462 42.5103L204.404 42.5599C202.614 44.2338 200.647 45.9388 198.924 47.374V55.4027C198.924 55.4027 205.883 50.1608 208.77 47.467C210.696 45.7131 212.506 43.8304 214.186 41.8314L214.338 41.6392C214.451 41.4873 214.582 41.3292 214.731 41.1525C214.88 40.9759 215.118 40.6969 215.34 40.4055L215.876 39.7514L218.123 36.6515C219.362 34.9567 220.291 33.0474 220.863 31.0159C220.984 30.5726 221.1 30.1107 221.21 29.6365C221.712 27.6959 222.15 26.022 223.271 24.8812C223.563 24.606 223.896 24.38 224.257 24.2116C225.535 23.6569 226.941 23.4828 228.313 23.7095C229.272 23.9562 230.158 24.4347 230.897 25.1044C232.602 26.8404 233.531 29.7542 233.449 33.1393V33.1703C233.351 39.2182 230.024 44.1315 227.591 47.7181L224.008 54.4821C223.894 54.6986 223.835 54.9404 223.837 55.1858C223.838 55.4312 223.899 55.6725 224.015 55.8877C224.131 56.103 224.297 56.2856 224.499 56.419C224.702 56.5524 224.933 56.6325 225.174 56.652L227.579 56.8411C228.398 56.9062 229.202 56.9372 229.978 56.9651C230.754 56.993 231.433 57.024 232.13 57.0798H232.313C237.404 57.1883 241.803 57.2813 243.898 60.0309C244.454 60.7659 244.8 61.6436 244.896 62.5666C244.985 63.8743 244.81 65.1867 244.382 66.4228C243.511 68.8998 243.301 71.5674 243.773 74.154C243.948 75.293 243.948 76.4527 243.773 77.5917V77.6444C243.535 79.2657 242.798 80.921 241.587 82.5671C241.036 83.3115 240.581 84.1252 240.235 84.9881L240.168 85.171C239.821 86.2445 239.642 87.367 239.638 88.4971C239.638 89.5511 239.136 91.0949 238.688 92.2666C238.264 93.3785 237.685 94.4225 236.968 95.3665C236.415 96.141 235.77 96.8427 235.047 97.4558L234.904 97.5643C234.134 98.1804 233.453 98.9047 232.882 99.7156L232.764 99.8334L232.578 100.122C229.993 104.152 228.501 106.48 225.904 108.442C224.137 109.733 222.131 110.647 220.007 111.126C219.419 111.266 218.844 111.384 218.281 111.467C216.69 111.722 215.084 111.87 213.474 111.911C207.918 111.924 202.381 111.244 196.987 109.886H196.936C193.3 108.982 189.611 108.323 185.89 107.915L183.101 107.899H73.0992C72.9676 107.905 72.8429 107.961 72.7504 108.056C72.6578 108.152 72.6042 108.279 72.6003 108.413C72.5965 108.547 72.6426 108.678 72.7296 108.779C72.8165 108.88 72.9377 108.943 73.0687 108.956L185.412 114.515C188.786 114.893 192.133 115.492 195.432 116.306C201.333 117.795 207.391 118.545 213.47 118.538C215.373 118.499 217.271 118.33 219.152 118.033H219.182C220.095 117.9 221.77 117.478 223.116 117.103C224.693 116.681 226.205 116.038 227.609 115.193C232.505 112.227 234.663 108.95 237.836 104.006L238.204 103.491C238.404 103.214 238.641 102.967 238.908 102.757C241.05 101.05 242.806 98.8927 244.055 96.4316C245.303 93.9706 246.015 91.2641 246.141 88.4971C246.144 88.1189 246.195 87.7427 246.294 87.3781C246.425 87.0887 246.586 86.8144 246.775 86.5597C248.635 84.0364 249.783 81.3829 250.184 78.6736C250.472 76.8398 250.472 74.971 250.184 73.1372V73.0659C249.911 71.6222 250.016 70.1308 250.489 68.7416L250.507 68.692C251.242 66.5895 251.542 64.3555 251.39 62.1295" fill="#FFD25E"/>
</svg>
