<svg width="15" height="15" viewBox="0 0 15 15" fill="none" xmlns="http://www.w3.org/2000/svg">
<path d="M14.0597 15C6.06188 15.0112 -0.00842871 8.86874 8.78502e-06 0.940311C8.78502e-06 0.421874 0.420009 0 0.937508 0H3.41251C3.87657 0 4.27126 0.34125 4.33969 0.800624C4.50292 1.90224 4.82337 2.97473 5.29126 3.98531L5.38782 4.19343C5.45268 4.33349 5.46664 4.49179 5.42727 4.64103C5.38791 4.79027 5.2977 4.92109 5.17219 5.01093C4.40532 5.55843 4.11282 6.65999 4.71001 7.51874C5.46187 8.59999 6.40026 9.5387 7.48125 10.2909C8.34094 10.8872 9.4425 10.5947 9.98907 9.82874C10.0788 9.70286 10.2097 9.61231 10.3592 9.57276C10.5087 9.53322 10.6672 9.54716 10.8075 9.61218L11.0147 9.7078C12.0253 10.1766 13.0978 10.4972 14.1994 10.6603C14.6588 10.7287 15 11.1234 15 11.5884V14.0625C15 14.1857 14.9757 14.3077 14.9285 14.4215C14.8814 14.5353 14.8122 14.6387 14.7251 14.7257C14.6379 14.8128 14.5345 14.8818 14.4206 14.9289C14.3068 14.9759 14.1848 15.0001 14.0616 15H14.0597Z" fill="#3BB77E"/>
</svg>
