<svg width="13" height="15" viewBox="0 0 13 15" fill="none" xmlns="http://www.w3.org/2000/svg">
<path d="M6.5 0C4.77672 0.00184311 3.1246 0.623288 1.90606 1.72801C0.687511 2.83274 0.00203992 4.33054 6.91533e-06 5.89286C-0.00205706 7.16958 0.457949 8.41167 1.30946 9.42857C1.30946 9.42857 1.48673 9.64018 1.51569 9.67071L6.5 15L11.4867 9.66804C11.5127 9.63964 11.6905 9.42857 11.6905 9.42857L11.6911 9.42696C12.5422 8.41051 13.002 7.169 13 5.89286C12.998 4.33054 12.3125 2.83274 11.0939 1.72801C9.8754 0.623288 8.22328 0.00184311 6.5 0V0ZM6.5 8.03571C6.03252 8.03571 5.57553 7.91004 5.18684 7.67458C4.79814 7.43912 4.49518 7.10445 4.31629 6.71289C4.13739 6.32134 4.09058 5.89048 4.18178 5.47481C4.27298 5.05913 4.4981 4.67731 4.82866 4.37763C5.15922 4.07794 5.58038 3.87386 6.03888 3.79117C6.49738 3.70849 6.97263 3.75093 7.40452 3.91311C7.83642 4.0753 8.20557 4.34996 8.46529 4.70235C8.72501 5.05474 8.86363 5.46904 8.86363 5.89286C8.86285 6.46096 8.61358 7.00559 8.17048 7.4073C7.72738 7.80901 7.12663 8.03501 6.5 8.03571V8.03571Z" fill="#3BB77E"/>
</svg>
