<svg width="89" height="61" viewBox="0 0 89 61" fill="none" xmlns="http://www.w3.org/2000/svg">
<rect x="1.78002" y="1.26" width="85.68" height="57.96" rx="8.82" />
<path fill-rule="evenodd" clip-rule="evenodd" d="M56.4043 47.391C65.9014 47.391 73.6002 39.6028 73.6002 29.9955C73.6002 20.3882 65.9014 12.6 56.4043 12.6C52.148 12.6 48.2528 14.1644 45.25 16.7557C42.2472 14.1644 38.3521 12.6001 34.0958 12.6001C24.5988 12.6001 16.8999 20.3883 16.8999 29.9956C16.8999 39.6029 24.5988 47.3911 34.0958 47.3911C38.3522 47.3911 42.2473 45.8268 45.2501 43.2354C48.2529 45.8267 52.148 47.391 56.4043 47.391Z" fill="#ED0006"/>
<path fill-rule="evenodd" clip-rule="evenodd" d="M45.2501 43.2354C48.9474 40.0447 51.2918 35.2971 51.2918 29.9955C51.2918 24.694 48.9474 19.9463 45.2501 16.7556C48.2529 14.1643 52.148 12.6 56.4043 12.6C65.9014 12.6 73.6002 20.3882 73.6002 29.9955C73.6002 39.6028 65.9014 47.391 56.4043 47.391C52.148 47.391 48.2529 45.8267 45.2501 43.2354Z" fill="#F9A000"/>
<path fill-rule="evenodd" clip-rule="evenodd" d="M45.2502 43.2351C48.9475 40.0445 51.2919 35.2968 51.2919 29.9952C51.2919 24.6937 48.9475 19.946 45.2502 16.7554C41.5529 19.946 39.2085 24.6937 39.2085 29.9952C39.2085 35.2968 41.5529 40.0445 45.2502 43.2351Z" fill="#FF5E00"/>
</svg>
