<svg width="21" height="22" viewBox="0 0 21 22" fill="none" xmlns="http://www.w3.org/2000/svg">
<path d="M10.4982 1C7.49043 1 5.54018 3.01899 3.23371 3.7549C2.29589 4.05413 1.82697 4.20374 1.6372 4.41465C1.44743 4.62556 1.39186 4.93375 1.28072 5.55013C0.091434 12.146 2.6909 18.244 8.89029 20.6175C9.55638 20.8725 9.88943 21 10.5015 21C11.1135 21 11.4466 20.8725 12.1126 20.6175C18.3116 18.2439 20.9086 12.146 19.719 5.55013C19.6078 4.93364 19.5522 4.6254 19.3624 4.41449C19.1726 4.20358 18.7037 4.05405 17.7659 3.75499C15.4585 3.01915 13.5061 1 10.4982 1Z" stroke="#3BB77E" stroke-width="1.5" stroke-linecap="round" stroke-linejoin="round"/>
<path d="M10.5 6L10.5 8" stroke="#3BB77E" stroke-width="1.5" stroke-linecap="round"/>
</svg>
