<svg width="33" height="28" viewBox="0 0 33 28" fill="none" xmlns="http://www.w3.org/2000/svg">
<path d="M1.52148 14.1739C1.52148 8.82156 1.52148 6.14538 3.11442 4.35866C3.3692 4.07289 3.65 3.8086 3.95364 3.56881C5.85202 2.06958 8.69546 2.06958 14.3824 2.06958H18.9215C24.6084 2.06958 27.4518 2.06958 29.3502 3.56881C29.6538 3.8086 29.9346 4.07289 30.1894 4.35866C31.7824 6.14538 31.7824 8.82156 31.7824 14.1739C31.7824 19.5263 31.7824 22.2025 30.1894 23.9892C29.9346 24.275 29.6538 24.5393 29.3502 24.779C27.4518 26.2783 24.6084 26.2783 18.9215 26.2783H14.3824C8.69546 26.2783 5.85202 26.2783 3.95364 24.779C3.65 24.5393 3.3692 24.275 3.11442 23.9892C1.52148 22.2025 1.52148 19.5263 1.52148 14.1739Z" stroke="#3BB77E" stroke-width="2.26957" stroke-linecap="round" stroke-linejoin="round"/>
<path d="M13.625 20.2261H15.8946" stroke="#3BB77E" stroke-width="2.26957" stroke-miterlimit="10" stroke-linecap="round" stroke-linejoin="round"/>
<path d="M20.4336 20.2261L25.7292 20.2261" stroke="#3BB77E" stroke-width="2.26957" stroke-miterlimit="10" stroke-linecap="round" stroke-linejoin="round"/>
<path d="M1.52148 9.63477H31.7824" stroke="#3BB77E" stroke-width="2.26957" stroke-linejoin="round"/>
</svg>
