<svg width="17" height="18" viewBox="0 0 17 18" fill="none" xmlns="http://www.w3.org/2000/svg">
<g clip-path="url(#clip0_513_17947)">
<circle cx="1.03061" cy="1.03061" r="1.03061" transform="matrix(1 0 0 -1 11.0605 6.3811)" stroke="#3BB77E" stroke-width="1.03061" stroke-linecap="round" stroke-linejoin="round"/>
<path d="M1.97336 8.54111C1.28412 9.31088 1.2693 10.4722 1.90186 11.2892C3.15711 12.9104 4.531 14.2843 6.15222 15.5396C6.9692 16.1722 8.13057 16.1573 8.90034 15.4681C10.9903 13.5968 12.9042 11.6412 14.7513 9.49203C14.934 9.27956 15.0482 9.01914 15.0738 8.74015C15.1872 7.50641 15.4201 3.95196 14.4548 2.98667C13.4895 2.02137 9.93504 2.25426 8.70129 2.36763C8.4223 2.39326 8.16189 2.50749 7.94941 2.69011C5.80029 4.5372 3.84466 6.45115 1.97336 8.54111Z" stroke="#3BB77E" stroke-width="1.03061"/>
<path d="M4.87695 10.5037L6.93818 12.5649" stroke="#3BB77E" stroke-width="1.03061" stroke-linecap="round" stroke-linejoin="round"/>
</g>
<defs>
<clipPath id="clip0_513_17947">
<rect width="16.4898" height="16.4898" fill="white" transform="translate(0.0683594 0.884399)"/>
</clipPath>
</defs>
</svg>
