<svg width="14" height="16" viewBox="0 0 14 16" fill="none" xmlns="http://www.w3.org/2000/svg">
<path d="M12.2798 3.45007L11.859 10.4676C11.7515 12.2606 11.6977 13.1571 11.2618 13.8016C11.0462 14.1202 10.7687 14.3892 10.4468 14.5913C9.79587 15.0001 8.92454 15.0001 7.18187 15.0001C5.43691 15.0001 4.56442 15.0001 3.91302 14.5905C3.59097 14.388 3.31336 14.1186 3.09789 13.7995C2.66205 13.1539 2.60947 12.2562 2.50432 10.4607L2.09375 3.45007" stroke="#3BB77E" stroke-width="1.05" stroke-linecap="round"/>
<path d="M13.2995 3.45007H1.07617" stroke="#3BB77E" stroke-width="1.05" stroke-linecap="round"/>
<path d="M9.9423 3.45L9.47872 2.46421C9.17077 1.80938 9.0168 1.48197 8.7512 1.27776C8.69228 1.23247 8.6299 1.19218 8.56466 1.15729C8.27055 1 7.91757 1 7.21161 1C6.48793 1 6.12608 1 5.82709 1.16388C5.76082 1.20021 5.69759 1.24213 5.63804 1.28922C5.36936 1.50169 5.21928 1.84109 4.91912 2.51988L4.50781 3.45" stroke="#3BB77E" stroke-width="1.05" stroke-linecap="round"/>
<path d="M5.48828 11.15L5.48828 6.95002" stroke="#3BB77E" stroke-width="1.05" stroke-linecap="round"/>
<path d="M8.88477 11.1501L8.88477 6.95007" stroke="#3BB77E" stroke-width="1.05" stroke-linecap="round"/>
</svg>
