<svg width="89" height="61" viewBox="0 0 89 61" fill="none" xmlns="http://www.w3.org/2000/svg">
<rect x="1.30004" y="1.26" width="85.68" height="57.96" rx="8.82" />
<path d="M30.0733 31.6401C29.3661 35.0489 26.2959 37.6121 22.6161 37.6121C21.7718 37.6121 20.9592 37.4768 20.201 37.2274L18.5107 42.1867C19.8007 42.6108 21.1808 42.8401 22.6161 42.8401C28.8709 42.8401 34.0884 38.4814 35.2908 32.6893L30.0733 31.6401Z" fill="#EC412A"/>
<path fill-rule="evenodd" clip-rule="evenodd" d="M60.4004 20.4405V34.78L62.9736 35.8115L61.7563 38.6397L59.2116 37.6169C58.6394 37.3769 58.2522 37.0113 57.958 36.5985C57.6755 36.176 57.466 35.5987 57.466 34.8195V20.4405H60.4004ZM40.8839 31.0983C40.9479 26.9976 44.44 23.7243 48.6775 23.7871C52.2741 23.8416 55.2541 26.2776 56.0368 29.5176L42.1265 35.2667C41.3184 34.0722 40.8592 32.6351 40.8839 31.0983ZM44.0664 31.6735C44.0474 31.5015 44.0339 31.3251 44.039 31.147C44.0789 28.7311 46.1349 26.8032 48.6315 26.8433C49.9904 26.8608 51.1971 27.4626 52.0128 28.3939L44.0664 31.6735ZM51.7199 34.335C50.8816 35.1236 49.7447 35.6041 48.4894 35.5868C47.629 35.5729 46.8318 35.3238 46.1539 34.9087L44.4735 37.4979C45.6244 38.2014 46.9813 38.6176 48.4443 38.6395C50.5737 38.6701 52.5146 37.8612 53.9259 36.5255L51.7199 34.335ZM71.1099 26.8427C70.6087 26.8427 70.1269 26.9211 69.6769 27.0671L68.6756 24.1658C69.4398 23.919 70.2582 23.785 71.1099 23.785C74.8265 23.785 77.927 26.3379 78.638 29.7292L75.5384 30.3402C75.1207 28.3443 73.2967 26.8427 71.1099 26.8427ZM66.0213 36.7761L68.1157 34.4859C67.1803 33.6851 66.5913 32.5156 66.5913 31.212C66.5913 29.9097 67.1803 28.7408 68.1148 27.9406L66.0189 25.6504C64.43 27.0111 63.4289 28.9994 63.4289 31.212C63.4289 33.4274 64.4307 35.4149 66.0213 36.7761ZM71.11 35.5827C73.2948 35.5827 75.1185 34.0824 75.5386 32.0894L78.6373 32.703C77.9228 36.0907 74.8233 38.6401 71.11 38.6401C70.2577 38.6401 69.4382 38.5057 68.6719 38.2577L69.6756 35.3574C70.1264 35.503 70.6084 35.5827 71.11 35.5827Z" fill="black"/>
<path d="M13.9868 40.0404L17.1118 36.0055C15.7169 34.5946 14.8365 32.5348 14.8365 30.2388C14.8365 27.9445 15.7161 25.8847 17.1106 24.4749L13.984 20.4404C11.6138 22.8375 10.1201 26.3389 10.1201 30.2388C10.1201 34.1407 11.6159 37.6434 13.9868 40.0404" fill="#1BA7DE"/>
<path d="M20.1986 23.2479C20.9567 22.9993 21.7678 22.8644 22.6117 22.8644C26.2947 22.8644 29.3669 25.4308 30.0717 28.8401L35.2908 27.7962C34.0932 22.0019 28.8723 17.6401 22.6117 17.6401C21.1784 17.6401 19.7987 17.8692 18.5107 18.2912L20.1986 23.2479Z" fill="#FECA2F"/>
</svg>
