<svg width="89" height="61" viewBox="0 0 89 61" fill="none" xmlns="http://www.w3.org/2000/svg">
<rect x="1.82006" y="1.26" width="85.68" height="57.96" rx="8.82"/>
<path fill-rule="evenodd" clip-rule="evenodd" d="M25.508 38.4077H21.5878C21.3196 38.4077 21.0914 38.6027 21.0496 38.8674L19.4641 48.9199C19.4326 49.1183 19.5862 49.2971 19.7874 49.2971H21.6589C21.9272 49.2971 22.1553 49.1021 22.1971 48.8368L22.6248 46.1256C22.666 45.86 22.8947 45.6653 23.1624 45.6653H24.4034C26.9858 45.6653 28.476 44.4157 28.8654 41.9394C29.0408 40.8561 28.8728 40.0049 28.3654 39.4086C27.8083 38.7541 26.82 38.4077 25.508 38.4077ZM25.9602 42.0792C25.7459 43.4859 24.6711 43.4859 23.6319 43.4859H23.0403L23.4553 40.8588C23.48 40.7001 23.6175 40.5831 23.7781 40.5831H24.0492C24.7571 40.5831 25.4249 40.5831 25.7701 40.9866C25.9756 41.2275 26.0388 41.585 25.9602 42.0792ZM37.2263 42.0341H35.349C35.189 42.0341 35.0508 42.1511 35.0262 42.31L34.9431 42.835L34.8118 42.6448C34.4055 42.0548 33.4993 41.8577 32.5948 41.8577C30.5201 41.8577 28.7484 43.4289 28.4033 45.633C28.224 46.7322 28.4789 47.7835 29.1026 48.5167C29.6747 49.1907 30.4933 49.4716 31.4671 49.4716C33.1386 49.4716 34.0656 48.3968 34.0656 48.3968L33.9818 48.9185C33.9503 49.118 34.1038 49.2968 34.3039 49.2968H35.9949C36.2639 49.2968 36.4907 49.1018 36.5331 48.8366L37.5478 42.4113C37.5799 42.2137 37.4268 42.0341 37.2263 42.0341ZM34.6094 45.6879C34.4283 46.7603 33.577 47.4803 32.4916 47.4803C31.9465 47.4803 31.5106 47.3055 31.231 46.9741C30.9536 46.6452 30.848 46.1768 30.9363 45.6553C31.1056 44.5918 31.9711 43.8485 33.0401 43.8485C33.5731 43.8485 34.0065 44.0255 34.2919 44.3597C34.5779 44.6974 34.6914 45.1685 34.6094 45.6879ZM45.3378 42.0339H47.2243C47.4885 42.0339 47.6426 42.3302 47.4925 42.5469L41.2182 51.6035C41.1166 51.7502 40.9492 51.8375 40.7705 51.8375H38.8863C38.621 51.8375 38.4661 51.5388 38.6197 51.3215L40.5734 48.5639L38.4956 42.466C38.4237 42.254 38.5802 42.0339 38.8056 42.0339H40.6593C40.9002 42.0339 41.1126 42.192 41.1821 42.4225L42.2849 46.1054L44.8868 42.2729C44.9887 42.1233 45.1579 42.0339 45.3378 42.0339Z" fill="#253B80"/>
<path fill-rule="evenodd" clip-rule="evenodd" d="M65.7918 48.9194L67.4006 38.6831C67.4253 38.5243 67.5629 38.4073 67.7229 38.4067H69.5341C69.7341 38.4067 69.8877 38.5861 69.8561 38.7845L68.2696 48.8364C68.2282 49.1016 68.0001 49.2966 67.7314 49.2966H66.1138C65.9138 49.2966 65.7602 49.1178 65.7918 48.9194ZM53.4705 38.4073H49.5497C49.282 38.4073 49.0539 38.6022 49.012 38.867L47.4265 48.9194C47.3949 49.1178 47.5485 49.2966 47.7488 49.2966H49.7605C49.9476 49.2966 50.1075 49.1603 50.1367 48.9746L50.5866 46.1251C50.628 45.8596 50.8566 45.6649 51.1243 45.6649H52.3646C54.9475 45.6649 56.4375 44.4152 56.8272 41.939C57.003 40.8557 56.8341 40.0044 56.3269 39.4081C55.7701 38.7537 54.7825 38.4073 53.4705 38.4073ZM53.9228 42.0788C53.709 43.4855 52.6341 43.4855 51.5943 43.4855H51.0033L51.419 40.8583C51.4436 40.6997 51.58 40.5827 51.741 40.5827H52.0121C52.7196 40.5827 53.388 40.5827 53.7329 40.9862C53.9387 41.227 54.0013 41.5846 53.9228 42.0788ZM65.1878 42.0337H63.3118C63.1505 42.0337 63.0137 42.1507 62.9895 42.3096L62.9065 42.8345L62.7747 42.6443C62.3683 42.0544 61.4627 41.8573 60.5581 41.8573C58.4835 41.8573 56.7123 43.4284 56.3672 45.6325C56.1884 46.7318 56.4423 47.783 57.0659 48.5162C57.6391 49.1902 58.4567 49.4712 59.4305 49.4712C61.1019 49.4712 62.0287 48.3963 62.0287 48.3963L61.9452 48.9181C61.9136 49.1176 62.0672 49.2963 62.2685 49.2963H63.9588C64.2264 49.2963 64.4546 49.1014 64.4965 48.8361L65.5116 42.4109C65.5427 42.2133 65.3891 42.0337 65.1878 42.0337ZM62.5712 45.6874C62.3911 46.7599 61.5388 47.4798 60.4531 47.4798C59.909 47.4798 59.4724 47.305 59.1925 46.9737C58.9151 46.6448 58.8108 46.1763 58.8981 45.6548C59.0681 44.5914 59.9326 43.8481 61.0016 43.8481C61.5348 43.8481 61.968 44.025 62.2537 44.3593C62.5407 44.6969 62.6542 45.168 62.5712 45.6874Z" fill="#179BD7"/>
<path d="M40.0161 34.8106L40.4981 31.7494L39.4246 31.7245H34.2983L37.8608 9.13563C37.8717 9.06743 37.9078 9.00385 37.9603 8.9587C38.0128 8.91355 38.0802 8.88867 38.1502 8.88867H46.7939C49.6635 8.88867 51.6437 9.48581 52.6777 10.6644C53.1623 11.2173 53.4711 11.7951 53.6204 12.4309C53.7769 13.0981 53.7798 13.8952 53.6268 14.8674L53.6156 14.9384V15.5613L54.1005 15.8359C54.5088 16.0524 54.8329 16.3003 55.0818 16.5842C55.4966 17.0569 55.7648 17.6577 55.8781 18.37C55.9951 19.1026 55.9563 19.9744 55.7648 20.9613C55.5436 22.0966 55.186 23.0854 54.7032 23.8945C54.2589 24.64 53.6931 25.2582 53.0215 25.7375C52.38 26.1927 51.6179 26.5383 50.7564 26.7595C49.9213 26.9768 48.9695 27.0866 47.9255 27.0866H47.2528C46.7718 27.0866 46.3044 27.2598 45.9378 27.5705C45.5702 27.8874 45.3267 28.3204 45.2521 28.7941L45.2015 29.0697L44.35 34.4649L44.3113 34.6631C44.3012 34.7259 44.2837 34.7572 44.2579 34.7785C44.2349 34.7976 44.2017 34.8106 44.1693 34.8106H40.0161Z" fill="#253B80"/>
<path d="M54.5597 15.0117C54.534 15.1767 54.5045 15.3453 54.4714 15.5185C53.3313 21.371 49.4316 23.3928 44.4508 23.3928H41.9149C41.3058 23.3928 40.7925 23.8351 40.6976 24.4359L39.3991 32.6706L39.0314 35.0046C38.9696 35.3991 39.2739 35.7548 39.6718 35.7548H44.1699C44.7025 35.7548 45.1548 35.3678 45.2386 34.8426L45.2829 34.6139L46.1299 29.2397L46.1843 28.945C46.267 28.4179 46.7204 28.0309 47.253 28.0309H47.9257C52.2835 28.0309 55.695 26.2616 56.6922 21.1416C57.1086 19.0027 56.893 17.2169 55.7908 15.9609C55.4574 15.5821 55.0436 15.2679 54.5597 15.0117Z" fill="#179BD7"/>
<path d="M53.3666 14.5361C53.1926 14.4854 53.0127 14.4393 52.8284 14.3979C52.6432 14.3573 52.4533 14.3214 52.258 14.2901C51.5742 14.1795 50.8251 14.127 50.0224 14.127H43.2476C43.0807 14.127 42.9223 14.1647 42.7804 14.2329C42.4679 14.3831 42.2358 14.6789 42.1796 15.0411L40.7382 24.1695L40.6968 24.4358C40.7917 23.835 41.305 23.3927 41.9141 23.3927H44.45C49.4309 23.3927 53.3308 21.37 54.4706 15.5184C54.5046 15.3452 54.5332 15.1765 54.5589 15.0116C54.2706 14.8586 53.9581 14.7278 53.6218 14.6163C53.539 14.5886 53.4533 14.5619 53.3666 14.5361Z" fill="#222D65"/>
<path d="M42.1791 15.041C42.2353 14.6788 42.4677 14.383 42.7799 14.2337C42.9229 14.1655 43.0804 14.1277 43.247 14.1277H50.0221C50.8248 14.1277 51.5739 14.1803 52.2575 14.2908C52.453 14.3222 52.6429 14.3581 52.8281 14.3986C53.0124 14.4401 53.192 14.4862 53.3663 14.5369C53.4528 14.5627 53.5384 14.5894 53.6223 14.6161C53.9586 14.7276 54.2711 14.8594 54.5594 15.0115C54.8987 12.8487 54.5568 11.3761 53.3875 10.0427C52.0983 8.57475 49.7714 7.94629 46.7941 7.94629H38.1502C37.542 7.94629 37.0234 8.38859 36.9292 8.99034L33.3291 31.8114C33.258 32.2629 33.6063 32.6703 34.0615 32.6703H39.398L40.7379 24.1694L42.1791 15.041Z" fill="#253B80"/>
</svg>
