<svg width="89" height="61" viewBox="0 0 89 61" fill="none" xmlns="http://www.w3.org/2000/svg">
<rect x="1.26" y="1.26" width="85.68" height="57.96" rx="8.82"/>
<path fill-rule="evenodd" clip-rule="evenodd" d="M26.7757 40.9706H21.4324L17.4257 25.6846C17.2355 24.9814 16.8317 24.3598 16.2377 24.0668C14.7554 23.3305 13.1219 22.7445 11.34 22.449V21.8605H19.9475C21.1355 21.8605 22.0264 22.7445 22.1749 23.7713L24.2538 34.7976L29.5944 21.8605H34.7892L26.7757 40.9706ZM37.7588 40.9706H32.7126L36.8679 21.8605H41.9141L37.7588 40.9706ZM48.4427 27.1548C48.5912 26.1255 49.4822 25.537 50.5217 25.537C52.1551 25.3893 53.9345 25.6848 55.4194 26.4185L56.3104 22.304C54.8254 21.7155 53.192 21.42 51.7096 21.42C46.8119 21.42 43.248 24.067 43.248 27.7408C43.248 30.5356 45.7724 32.003 47.5544 32.887C49.4822 33.7685 50.2247 34.3571 50.0762 35.2385C50.0762 36.5608 48.5912 37.1493 47.1089 37.1493C45.327 37.1493 43.545 36.7086 41.9142 35.9723L41.0232 40.0893C42.8052 40.823 44.733 41.1186 46.5149 41.1186C52.0066 41.2638 55.4194 38.6193 55.4194 34.65C55.4194 29.6515 48.4427 29.3585 48.4427 27.1548ZM73.0798 40.9706L69.073 21.8605H64.7693C63.8783 21.8605 62.9873 22.449 62.6903 23.3305L55.2708 40.9706H60.4655L61.5024 38.1783H67.8851L68.479 40.9706H73.0798ZM65.5117 27.0076L66.9941 34.2098H62.8388L65.5117 27.0076Z" fill="#172B85"/>
</svg>
