<svg width="28" height="28" viewBox="0 0 28 28" fill="none" xmlns="http://www.w3.org/2000/svg">
<g id="li:shopping-cart" clip-path="url(#clip0_513_16724)">
<path id="Vector (Stroke)" fill-rule="evenodd" clip-rule="evenodd" d="M8.16602 24.5C8.16602 23.2113 9.21068 22.1666 10.4993 22.1666C11.788 22.1666 12.8327 23.2113 12.8327 24.5C12.8327 25.7886 11.788 26.8333 10.4993 26.8333C9.21068 26.8333 8.16602 25.7886 8.16602 24.5Z" fill="#3BB77E"/>
<path id="Vector (Stroke)_2" fill-rule="evenodd" clip-rule="evenodd" d="M21 24.5C21 23.2113 22.0447 22.1666 23.3333 22.1666C24.622 22.1666 25.6667 23.2113 25.6667 24.5C25.6667 25.7886 24.622 26.8333 23.3333 26.8333C22.0447 26.8333 21 25.7886 21 24.5Z" fill="#3BB77E"/>
<path id="Vector (Stroke)_3" fill-rule="evenodd" clip-rule="evenodd" d="M0 1.16667C0 0.522334 0.522334 0 1.16667 0H5.83333C6.3894 0 6.86818 0.392449 6.97731 0.9377L7.95717 5.83333H26.8333C27.181 5.83333 27.5106 5.98842 27.7322 6.25631C27.9539 6.52421 28.0445 6.87701 27.9793 7.21855L26.111 17.0156C25.951 17.8213 25.5126 18.545 24.8728 19.0601C24.2361 19.5727 23.4402 19.8461 22.6232 19.8333H11.3034C10.4864 19.8461 9.69057 19.5727 9.05389 19.0601C8.41429 18.5453 7.97607 17.8219 7.81588 17.0166C7.81582 17.0163 7.81595 17.0169 7.81588 17.0166L5.86692 7.27907C5.85902 7.24686 5.85245 7.21412 5.84728 7.18092L4.87704 2.33333H1.16667C0.522334 2.33333 0 1.811 0 1.16667ZM8.42418 8.16667L10.1043 16.561C10.1577 16.8296 10.3038 17.0709 10.517 17.2426C10.7303 17.4143 10.9972 17.5055 11.271 17.5002L11.2933 17.5H22.6333L22.6557 17.5002C22.9294 17.5055 23.1963 17.4143 23.4096 17.2426C23.6219 17.0717 23.7677 16.8319 23.8216 16.5648L25.4232 8.16667H8.42418Z" fill="#3BB77E"/>
</g>
<defs>
<clipPath id="clip0_513_16724">
<rect width="28" height="28" fill="white"/>
</clipPath>
</defs>
</svg>
