<svg width="24" height="25" viewBox="0 0 24 25" fill="none" xmlns="http://www.w3.org/2000/svg">
<path fill-rule="evenodd" clip-rule="evenodd" d="M4.95051 2.981C5.72844 2.65798 6.56249 2.4917 7.40482 2.4917C8.24715 2.4917 9.08119 2.65798 9.85912 2.981C10.6371 3.30402 11.3436 3.77743 11.9382 4.37408L11.9415 4.37742L11.9998 4.43653L12.0582 4.37743L12.0615 4.37408C12.6561 3.77743 13.3626 3.30402 14.1405 2.981C14.9184 2.65798 15.7525 2.4917 16.5948 2.4917C17.4371 2.4917 18.2712 2.65798 19.0491 2.981C19.8268 3.30391 20.5331 3.7771 21.1275 4.37346C23.6726 6.91915 23.7291 11.1283 20.7135 14.2005L20.707 14.2071L12.7069 22.2071C12.5194 22.3946 12.265 22.5 11.9998 22.5C11.7346 22.5 11.4802 22.3946 11.2927 22.2071L3.28615 14.2005C0.270454 11.1283 0.327075 6.91915 2.8721 4.37346C3.46656 3.7771 4.17285 3.30391 4.95051 2.981ZM7.40482 4.4917C6.82572 4.4917 6.25231 4.60602 5.71748 4.82809C5.18266 5.05017 4.69693 5.37564 4.28815 5.78584L4.28693 5.78706C2.59331 7.48068 2.38957 10.4292 4.71033 12.7963L11.9998 20.0857L19.2893 12.7963C21.6101 10.4292 21.4063 7.48068 19.7127 5.78706L19.7115 5.78584C19.3027 5.37564 18.817 5.05017 18.2822 4.82809C17.7473 4.60602 17.1739 4.4917 16.5948 4.4917C16.0157 4.4917 15.4423 4.60602 14.9075 4.82809C14.3734 5.04988 13.8882 5.37478 13.4798 5.78422C13.4792 5.78476 13.4787 5.7853 13.4782 5.78584L12.7115 6.56249C12.5236 6.75282 12.2673 6.85996 11.9998 6.85996C11.7324 6.85996 11.4761 6.75282 11.2882 6.56249L10.5215 5.78584C10.5209 5.7853 10.5204 5.78476 10.5199 5.78422C10.1114 5.37478 9.62628 5.04988 9.09215 4.82809C8.55733 4.60602 7.98392 4.4917 7.40482 4.4917Z" fill="#253D4E"/>
</svg>
