<svg width="16" height="14" viewBox="0 0 16 14" fill="none" xmlns="http://www.w3.org/2000/svg">
<ellipse cx="8.14531" cy="7" rx="7.7" ry="7" fill="#3BB77E"/>
<path d="M5.90799 7.696C5.78105 7.696 5.67652 7.65493 5.59439 7.5728C5.51225 7.49067 5.47119 7.38987 5.47119 7.2704C5.47119 7.15093 5.51225 7.05387 5.59439 6.9792C5.67652 6.89707 5.78105 6.856 5.90799 6.856H10.5C10.6269 6.856 10.7315 6.89707 10.8136 6.9792C10.8957 7.06133 10.9368 7.16213 10.9368 7.2816C10.9368 7.40107 10.8957 7.50187 10.8136 7.584C10.7315 7.65867 10.6269 7.696 10.5 7.696H5.90799ZM8.19279 10.0368C8.05839 10.0368 7.94265 9.992 7.84559 9.9024C7.75599 9.8128 7.71119 9.7008 7.71119 9.5664V4.9408C7.71119 4.79893 7.75599 4.6832 7.84559 4.5936C7.94265 4.504 8.06212 4.4592 8.20399 4.4592C8.34585 4.4592 8.45785 4.504 8.53999 4.5936C8.62959 4.6832 8.67439 4.79893 8.67439 4.9408V9.5552C8.67439 9.69707 8.62959 9.8128 8.53999 9.9024C8.45039 9.992 8.33465 10.0368 8.19279 10.0368Z" fill="white"/>
</svg>
