<svg width="32" height="41" viewBox="0 0 32 41" fill="none" xmlns="http://www.w3.org/2000/svg">
<path d="M1.1348 15.8961L1.1348 15.8957C1.1394 11.9938 2.69147 8.25304 5.45053 5.49398C8.20929 2.73522 11.9495 1.1832 15.8509 1.17824C19.7524 1.1832 23.4926 2.73522 26.2514 5.49398C29.0104 8.25304 30.5625 11.9938 30.5671 15.8957V15.896C30.5717 19.0803 29.5315 22.1782 27.6062 24.7145L27.4927 24.864L27.4921 24.8661L27.3839 25.0071C27.3261 25.0824 27.2671 25.159 27.219 25.221L27.1585 25.2987C27.1495 25.3101 27.1438 25.3174 27.1406 25.3214C27.1398 25.3223 27.1392 25.3231 27.1388 25.3237L15.8509 38.6366L4.56169 25.3224L4.56171 25.3224L4.55669 25.3165C4.55843 25.3186 4.55677 25.3165 4.55119 25.3094C4.54149 25.2972 4.51993 25.27 4.48374 25.2234C4.43566 25.1616 4.37684 25.0851 4.31899 25.0096C4.26138 24.9344 4.20582 24.8616 4.16458 24.8075L4.11522 24.7426L4.10161 24.7247L4.09809 24.7201L4.09721 24.719L4.0971 24.7188C2.17078 22.1813 1.13013 19.0819 1.1348 15.8961ZM22.7497 15.8958V15.8944C22.7497 14.5299 22.3451 13.1961 21.5871 12.0616C20.829 10.9272 19.7516 10.0429 18.491 9.52077C17.2304 8.99862 15.8433 8.862 14.5051 9.12819C13.1668 9.39438 11.9376 10.0514 10.9728 11.0162C10.008 11.981 9.35094 13.2103 9.08475 14.5485C8.81856 15.8867 8.95518 17.2738 9.47733 18.5344C9.99948 19.795 10.8837 20.8725 12.0182 21.6305C13.1527 22.3885 14.4865 22.7931 15.8509 22.7931L15.8524 22.7931C17.681 22.7909 19.434 22.0634 20.727 20.7704C22.02 19.4774 22.7474 17.7244 22.7497 15.8958Z" stroke="#3BB77E" stroke-width="2.26957"/>
</svg>
