<svg width="15" height="15" viewBox="0 0 15 15" fill="none" xmlns="http://www.w3.org/2000/svg">
<path d="M7.94785 0.741455C5.88128 0.741455 4.54132 2.12865 2.9566 2.63428C2.31225 2.83987 1.99007 2.94267 1.85968 3.08757C1.72929 3.23248 1.69111 3.44423 1.61475 3.86774C0.797622 8.39959 2.58365 12.5894 6.8431 14.2201C7.30075 14.3953 7.52958 14.483 7.9501 14.483C8.37063 14.4829 8.59944 14.3953 9.05707 14.2201C13.3162 12.5893 15.1006 8.39957 14.2832 3.86773C14.2068 3.44416 14.1686 3.23237 14.0382 3.08746C13.9078 2.94255 13.5856 2.83981 12.9413 2.63434C11.356 2.12876 10.0145 0.741455 7.94785 0.741455Z" stroke="#3BB77E" stroke-width="1.03061" stroke-linecap="round" stroke-linejoin="round"/>
<path d="M7.94922 4.17676L7.94922 5.55091" stroke="#3BB77E" stroke-width="1.03061" stroke-linecap="round"/>
</svg>
