<svg width="33" height="27" viewBox="0 0 33 27" fill="none" xmlns="http://www.w3.org/2000/svg">
<circle cx="24.3735" cy="22.2663" r="2.99457" stroke="#3BB77E" stroke-width="2.24592"/>
<circle cx="9.40082" cy="22.2663" r="2.99457" stroke="#3BB77E" stroke-width="2.24592"/>
<path d="M6.40591 22.225C4.7638 22.1432 3.7394 21.8989 3.01042 21.1699C2.28144 20.4409 2.03717 19.4165 1.95531 17.7744M12.395 22.2663H21.3787M27.3679 22.225C29.01 22.1432 30.0344 21.8989 30.7634 21.1699C31.8597 20.0736 31.8597 18.309 31.8597 14.7799V11.7853H24.8225C23.7077 11.7853 23.1504 11.7853 22.6993 11.6387C21.7876 11.3425 21.0729 10.6278 20.7767 9.71611C20.6301 9.26503 20.6301 8.70765 20.6301 7.59291C20.6301 5.92079 20.6301 5.08473 20.4102 4.40811C19.9659 3.04062 18.8938 1.96849 17.5263 1.52417C16.8497 1.30432 16.0136 1.30432 14.3415 1.30432H1.91406" stroke="#3BB77E" stroke-width="2.24592" stroke-linecap="round" stroke-linejoin="round"/>
<path d="M1.91406 7.29346H10.8978" stroke="#3BB77E" stroke-width="2.24592" stroke-linecap="round" stroke-linejoin="round"/>
<path d="M1.91406 11.7853H7.90319" stroke="#3BB77E" stroke-width="2.24592" stroke-linecap="round" stroke-linejoin="round"/>
<path d="M20.6309 4.29883H23.3577C25.5368 4.29883 26.6263 4.29883 27.513 4.82843C28.3997 5.35804 28.9162 6.31733 29.9493 8.23593L31.8605 11.7852" stroke="#3BB77E" stroke-width="2.24592" stroke-linecap="round" stroke-linejoin="round"/>
</svg>
