<svg width="34" height="34" viewBox="0 0 34 34" fill="none" xmlns="http://www.w3.org/2000/svg">
<path d="M16.6179 0.506104C7.47808 0.506104 0 7.96756 0 17.1573C0 25.4663 6.08217 32.3627 14.0255 33.609V21.9765H9.80459V17.1573H14.0255V13.4847C14.0255 9.31361 16.5016 7.02034 20.3071 7.02034C22.1185 7.02034 24.0129 7.33608 24.0129 7.33608V11.4407H21.9191C19.8584 11.4407 19.2103 12.7203 19.2103 14.0331V17.1573H23.8301L23.0823 21.9765H19.2103V33.609C23.1263 32.9906 26.6921 30.9926 29.2641 27.9757C31.8361 24.9588 33.2448 21.1217 33.2359 17.1573C33.2359 7.96756 25.7578 0.506104 16.6179 0.506104Z" fill="white"/>
</svg>
