<svg width="92" height="28" viewBox="0 0 92 28" fill="none" xmlns="http://www.w3.org/2000/svg">
<rect x="1.07373" y="0.610352" width="89.9265" height="26.49" rx="13" fill="white"/>
<path d="M16.4425 15.42C16.2529 15.42 16.0967 15.3586 15.974 15.2359C15.8513 15.1132 15.79 14.9627 15.79 14.7842C15.79 14.6057 15.8513 14.4608 15.974 14.3492C16.0967 14.2265 16.2529 14.1652 16.4425 14.1652H23.302C23.4916 14.1652 23.6477 14.2265 23.7704 14.3492C23.8931 14.4719 23.9545 14.6225 23.9545 14.8009C23.9545 14.9794 23.8931 15.13 23.7704 15.2527C23.6477 15.3642 23.4916 15.42 23.302 15.42H16.4425ZM19.8555 18.9166C19.6547 18.9166 19.4818 18.8497 19.3369 18.7159C19.203 18.582 19.1361 18.4147 19.1361 18.214V11.3043C19.1361 11.0923 19.203 10.9195 19.3369 10.7856C19.4818 10.6518 19.6603 10.5848 19.8722 10.5848C20.0841 10.5848 20.2515 10.6518 20.3741 10.7856C20.508 10.9195 20.5749 11.0923 20.5749 11.3043V18.1972C20.5749 18.4092 20.508 18.582 20.3741 18.7159C20.2403 18.8497 20.0674 18.9166 19.8555 18.9166ZM28.5924 20.4224C28.1463 20.4224 27.689 20.3555 27.2205 20.2216C26.7632 20.0766 26.3617 19.8647 26.0159 19.5859C25.9267 19.5078 25.8542 19.4074 25.7984 19.2847C25.7427 19.162 25.7148 19.0449 25.7148 18.9334C25.7148 18.7995 25.7706 18.6713 25.8821 18.5486C26.0048 18.4147 26.1609 18.3478 26.3506 18.3478C26.4955 18.3478 26.6629 18.4203 26.8525 18.5653C27.0978 18.7549 27.3711 18.9055 27.6723 19.017C27.9734 19.1286 28.2746 19.1843 28.5757 19.1843C29.2003 19.1843 29.7413 19.0672 30.1986 18.833C30.6559 18.5988 31.0072 18.2697 31.2526 17.8459C31.498 17.4221 31.6207 16.9257 31.6207 16.3569C31.6207 15.8438 31.5035 15.3977 31.2693 15.0184C31.0462 14.6281 30.7284 14.3269 30.3157 14.115C29.9142 13.9031 29.4513 13.7971 28.9271 13.7971C28.5367 13.7971 28.1853 13.8585 27.873 13.9811C27.5719 14.0927 27.3042 14.2098 27.07 14.3325C26.8469 14.4552 26.6517 14.5165 26.4844 14.5165C26.2725 14.5165 26.1107 14.4719 25.9992 14.3827C25.8877 14.2823 25.8152 14.1596 25.7817 14.0146C25.7483 13.8696 25.7371 13.7358 25.7483 13.6131L26.4007 9.27987C26.4342 9.13487 26.5123 9.0066 26.635 8.89507C26.7577 8.78353 26.9082 8.72776 27.0867 8.72776H32.0557C32.2341 8.72776 32.3847 8.78911 32.5074 8.9118C32.6301 9.03449 32.6914 9.19064 32.6914 9.38025C32.6914 9.55871 32.6301 9.70929 32.5074 9.83198C32.3847 9.94351 32.2341 9.99928 32.0557 9.99928H27.4213L27.5886 9.84871L26.9696 13.6298L26.7019 13.2785C26.8246 13.1669 27.0086 13.0554 27.254 12.9439C27.5105 12.8323 27.8005 12.7375 28.124 12.6594C28.4586 12.5814 28.7988 12.5423 29.1445 12.5423C29.8695 12.5423 30.5164 12.7096 31.0853 13.0442C31.6653 13.3677 32.1226 13.8138 32.4572 14.3827C32.7918 14.9515 32.9591 15.604 32.9591 16.3401C32.9591 17.1544 32.7806 17.8682 32.4237 18.4817C32.0668 19.0951 31.5593 19.5747 30.9013 19.9205C30.2543 20.2551 29.4847 20.4224 28.5924 20.4224ZM44.097 11.5719C44.8554 11.5719 45.4689 11.7671 45.9373 12.1575C46.4169 12.5367 46.7348 13.0777 46.891 13.7804H46.64L46.7571 13.4792C46.891 13.1669 47.1196 12.8658 47.4431 12.5758C47.7665 12.2858 48.1402 12.046 48.564 11.8564C48.9879 11.6668 49.4284 11.5719 49.8857 11.5719C50.6219 11.5719 51.2019 11.7337 51.6257 12.0571C52.0495 12.3694 52.3507 12.7933 52.5291 13.3287C52.7188 13.8529 52.8136 14.444 52.8136 15.1021V19.6695C52.8136 19.8591 52.7466 20.0209 52.6128 20.1547C52.4901 20.2885 52.334 20.3555 52.1443 20.3555C51.9436 20.3555 51.7818 20.2885 51.6592 20.1547C51.5365 20.0209 51.4751 19.8591 51.4751 19.6695V15.1355C51.4751 14.7006 51.4082 14.3102 51.2744 13.9644C51.1517 13.6075 50.9453 13.3287 50.6553 13.1279C50.3765 12.916 49.9917 12.81 49.5009 12.81C49.0436 12.81 48.6254 12.916 48.2461 13.1279C47.8669 13.3287 47.5658 13.6075 47.3427 13.9644C47.1196 14.3102 47.0081 14.7006 47.0081 15.1355V19.6695C47.0081 19.8591 46.9467 20.0209 46.824 20.1547C46.7013 20.2885 46.5396 20.3555 46.3389 20.3555C46.1492 20.3555 45.9875 20.2885 45.8537 20.1547C45.731 20.0209 45.6696 19.8591 45.6696 19.6695V15.0854C45.6696 14.6615 45.6083 14.2823 45.4856 13.9477C45.3741 13.6019 45.1789 13.3287 44.9 13.1279C44.6212 12.916 44.2364 12.81 43.7456 12.81C43.2995 12.81 42.8924 12.916 42.5243 13.1279C42.1562 13.3287 41.8607 13.6019 41.6376 13.9477C41.4145 14.2823 41.303 14.6615 41.303 15.0854V19.6695C41.303 19.8591 41.236 20.0209 41.1022 20.1547C40.9795 20.2885 40.8234 20.3555 40.6337 20.3555C40.4441 20.3555 40.2824 20.2885 40.1486 20.1547C40.0259 20.0209 39.9645 19.8591 39.9645 19.6695V12.375C39.9645 12.1854 40.0259 12.0293 40.1486 11.9066C40.2824 11.7727 40.4441 11.7058 40.6337 11.7058C40.8345 11.7058 40.9962 11.7727 41.1189 11.9066C41.2416 12.0293 41.303 12.1854 41.303 12.375V13.6465L40.9349 14.0481C40.9795 13.7581 41.091 13.4681 41.2695 13.1781C41.4591 12.8881 41.6989 12.6204 41.9889 12.375C42.2789 12.1296 42.6024 11.9344 42.9593 11.7894C43.3162 11.6444 43.6954 11.5719 44.097 11.5719ZM62.5147 11.6221C62.7043 11.6221 62.8605 11.6891 62.9832 11.8229C63.117 11.9456 63.184 12.1017 63.184 12.2914V19.6695C63.184 19.8591 63.117 20.0209 62.9832 20.1547C62.8605 20.2885 62.7043 20.3555 62.5147 20.3555C62.314 20.3555 62.1522 20.2885 62.0295 20.1547C61.9069 20.0209 61.8455 19.8591 61.8455 19.6695V18.0801L62.1634 18.0467C62.1634 18.292 62.0797 18.5597 61.9124 18.8497C61.7451 19.1397 61.5165 19.413 61.2265 19.6695C60.9365 19.9149 60.5907 20.1212 60.1892 20.2885C59.7988 20.4447 59.375 20.5228 58.9177 20.5228C58.1592 20.5228 57.4788 20.3276 56.8765 19.9372C56.2743 19.5357 55.7946 18.9947 55.4377 18.3143C55.092 17.634 54.9191 16.8588 54.9191 15.9888C54.9191 15.1077 55.092 14.3325 55.4377 13.6633C55.7946 12.9829 56.2743 12.4531 56.8765 12.0739C57.4788 11.6835 58.1481 11.4883 58.8842 11.4883C59.3638 11.4883 59.81 11.5664 60.2227 11.7225C60.6353 11.8787 60.9923 12.0906 61.2934 12.3583C61.6057 12.626 61.8455 12.9215 62.0128 13.245C62.1913 13.5685 62.2805 13.8919 62.2805 14.2154L61.8455 14.115V12.2914C61.8455 12.1017 61.9069 11.9456 62.0295 11.8229C62.1522 11.6891 62.314 11.6221 62.5147 11.6221ZM59.0682 19.2847C59.6259 19.2847 60.1167 19.1397 60.5405 18.8497C60.9755 18.5597 61.3101 18.1693 61.5444 17.6786C61.7897 17.1767 61.9124 16.6134 61.9124 15.9888C61.9124 15.3754 61.7897 14.8232 61.5444 14.3325C61.3101 13.8306 60.9755 13.4402 60.5405 13.1613C60.1167 12.8714 59.6259 12.7264 59.0682 12.7264C58.5217 12.7264 58.031 12.8658 57.596 13.1446C57.1721 13.4235 56.8375 13.8083 56.5921 14.299C56.3467 14.7898 56.2241 15.353 56.2241 15.9888C56.2241 16.6134 56.3412 17.1767 56.5754 17.6786C56.8208 18.1693 57.1554 18.5597 57.5792 18.8497C58.0142 19.1397 58.5106 19.2847 59.0682 19.2847ZM67.0502 19.6695C67.0502 19.8591 66.9833 20.0209 66.8495 20.1547C66.7268 20.2885 66.5706 20.3555 66.381 20.3555C66.1802 20.3555 66.0185 20.2885 65.8958 20.1547C65.7731 20.0209 65.7118 19.8591 65.7118 19.6695V12.2412C65.7118 12.0516 65.7731 11.8954 65.8958 11.7727C66.0297 11.6389 66.1914 11.5719 66.381 11.5719C66.5706 11.5719 66.7268 11.6389 66.8495 11.7727C66.9833 11.8954 67.0502 12.0516 67.0502 12.2412V19.6695ZM66.381 10.451C66.1022 10.451 65.8958 10.3952 65.762 10.2837C65.6281 10.1722 65.5612 9.99928 65.5612 9.76505V9.53083C65.5612 9.2966 65.6337 9.12372 65.7787 9.01218C65.9237 8.90064 66.13 8.84488 66.3977 8.84488C66.6654 8.84488 66.8662 8.90064 67 9.01218C67.1339 9.12372 67.2008 9.2966 67.2008 9.53083V9.76505C67.2008 9.99928 67.1283 10.1722 66.9833 10.2837C66.8495 10.3952 66.6487 10.451 66.381 10.451ZM69.0669 18.9836C68.9665 18.8386 68.9219 18.688 68.933 18.5318C68.9442 18.3645 69.039 18.2195 69.2174 18.0968C69.329 18.0188 69.4572 17.9853 69.6022 17.9965C69.7584 18.0076 69.8978 18.0801 70.0205 18.214C70.3328 18.582 70.6897 18.8776 71.0913 19.1007C71.4928 19.3126 71.9835 19.4186 72.5635 19.4186C72.8312 19.4074 73.0989 19.3628 73.3666 19.2847C73.6343 19.2066 73.8574 19.0728 74.0358 18.8832C74.2254 18.6824 74.3202 18.4203 74.3202 18.0968C74.3202 17.7845 74.2254 17.5392 74.0358 17.3607C73.8462 17.1711 73.6008 17.0205 73.2997 16.909C72.9985 16.7863 72.6695 16.6803 72.3126 16.5911C71.9445 16.4907 71.582 16.3792 71.2251 16.2565C70.8682 16.1226 70.5447 15.9609 70.2547 15.7713C69.9759 15.5705 69.7472 15.3252 69.5688 15.0352C69.4015 14.734 69.3178 14.3715 69.3178 13.9477C69.3178 13.4458 69.4517 13.0108 69.7194 12.6427C69.9982 12.2746 70.3663 11.9902 70.8236 11.7894C71.292 11.5887 71.7995 11.4883 72.346 11.4883C72.6583 11.4883 72.9818 11.5273 73.3164 11.6054C73.6622 11.6723 73.9968 11.795 74.3202 11.9735C74.6437 12.1408 74.9281 12.375 75.1735 12.6762C75.2739 12.7877 75.3296 12.9271 75.3408 13.0944C75.352 13.2617 75.2795 13.4123 75.1233 13.5462C75.0006 13.6354 74.8612 13.6744 74.705 13.6633C74.56 13.6521 74.4374 13.5963 74.337 13.496C74.1027 13.2171 73.8072 13.0052 73.4503 12.8602C73.1045 12.704 72.7197 12.626 72.2958 12.626C72.0282 12.626 71.7661 12.665 71.5095 12.7431C71.253 12.8212 71.0355 12.955 70.857 13.1446C70.6897 13.3231 70.6061 13.574 70.6061 13.8975C70.6172 14.1986 70.7176 14.444 70.9072 14.6336C71.0968 14.8232 71.3534 14.9794 71.6768 15.1021C72.0003 15.2136 72.3572 15.3252 72.7476 15.4367C73.1045 15.5259 73.4447 15.6319 73.7681 15.7546C74.1027 15.8661 74.4039 16.0167 74.6716 16.2063C74.9393 16.3959 75.1512 16.6413 75.3073 16.9424C75.4635 17.2324 75.5416 17.6005 75.5416 18.0467C75.5416 18.5597 75.3966 19.0059 75.1066 19.3851C74.8166 19.7532 74.4318 20.0376 73.9522 20.2384C73.4837 20.428 72.9762 20.5228 72.4297 20.5228C71.8162 20.5228 71.2084 20.4057 70.6061 20.1714C70.0149 19.9372 69.5019 19.5413 69.0669 18.9836Z" fill="black"/>
<rect x="1.07373" y="0.610352" width="89.9265" height="26.49" rx="13" />
</svg>
