<svg width="54" height="145" viewBox="0 0 54 145" fill="none" xmlns="http://www.w3.org/2000/svg">
<circle cx="26.9414" cy="27.4966" r="24.1054" stroke="#3BB77E" stroke-width="5.67187"/>
<path d="M18.6556 23.4497C18.6556 21.8276 19.0351 20.481 19.7942 19.41C20.5637 18.3389 21.5983 17.5382 22.8981 17.0079C24.1979 16.4672 25.6433 16.1968 27.2343 16.1968C28.9188 16.1968 30.4162 16.4152 31.7264 16.8519C33.047 17.2887 34.0868 17.9542 34.8459 18.8484C35.605 19.7427 35.9845 20.8761 35.9845 22.2487C35.9845 23.3614 35.6622 24.344 35.0175 25.1967C34.3728 26.039 33.3225 26.7097 31.8668 27.2088C32.6986 27.4375 33.4681 27.7859 34.1752 28.2538C34.8823 28.7218 35.449 29.3197 35.8754 30.0476C36.3017 30.7754 36.5149 31.6489 36.5149 32.668C36.5149 33.7702 36.2705 34.7424 35.7818 35.5847C35.293 36.427 34.6171 37.1341 33.7541 37.706C32.891 38.2779 31.8928 38.7042 30.7593 38.985C29.6259 39.2658 28.4145 39.4061 27.1251 39.4061C25.3157 39.3957 23.7716 39.0994 22.4926 38.5171C21.224 37.9244 20.2465 37.0821 19.5602 35.9903C18.8843 34.8984 18.536 33.5986 18.5152 32.0908H22.8981C23.1165 33.3698 23.6156 34.2953 24.3955 34.8672C25.1754 35.4391 26.1008 35.7251 27.1719 35.7251C28.1077 35.7251 28.9084 35.5899 29.5739 35.3196C30.2498 35.0492 30.7645 34.6749 31.1181 34.1965C31.482 33.7078 31.664 33.1515 31.664 32.5276C31.664 31.8829 31.4768 31.3266 31.1025 30.8586C30.7385 30.3907 30.229 30.0268 29.5739 29.7668C28.9188 29.4964 28.1701 29.3509 27.3278 29.3301L25.1754 29.2521V25.6334L27.1095 25.5242C27.9206 25.493 28.6276 25.3423 29.2308 25.0719C29.8339 24.8015 30.3018 24.4428 30.6345 23.9957C30.9777 23.5381 31.1493 23.0234 31.1493 22.4515C31.1493 21.9004 30.9777 21.4221 30.6345 21.0165C30.2914 20.611 29.8183 20.2938 29.2152 20.0651C28.6121 19.8363 27.9206 19.7219 27.1407 19.7219C26.4232 19.7219 25.7629 19.8415 25.1598 20.0807C24.5567 20.3198 24.0627 20.715 23.678 21.2661C23.2933 21.8068 23.0697 22.5347 23.0073 23.4497H18.6556Z" fill="#1B1B1B"/>
</svg>
