<svg width="54" height="111" viewBox="0 0 54 111" fill="none" xmlns="http://www.w3.org/2000/svg">
<circle cx="26.9414" cy="27.2114" r="24.1054" stroke="#3BB77E" stroke-width="5.67187"/>
<path d="M18.8773 38.7778V36.5318V35.3775C18.8773 34.2337 19.0905 33.2459 19.5168 32.414C19.9432 31.5717 20.5047 30.8438 21.2014 30.2303C21.9085 29.6064 22.6779 29.0605 23.5098 28.5926C24.3521 28.1246 25.1944 27.6827 26.0366 27.2668C26.8789 26.8508 27.6484 26.4349 28.3451 26.019C29.0522 25.5926 29.6189 25.1195 30.0452 24.5996C30.4716 24.0797 30.6847 23.4661 30.6847 22.7591C30.6847 21.8544 30.3676 21.1161 29.7333 20.5442C29.1094 19.9723 28.2515 19.6863 27.1597 19.6863C26.0262 19.6863 25.0644 20.0139 24.2741 20.669C23.4838 21.3241 22.9951 22.3119 22.8079 23.6325H18.4562C18.477 22.1975 18.8097 20.8977 19.4544 19.7331C20.1095 18.5581 21.087 17.6274 22.3868 16.9411C23.6866 16.2548 25.3191 15.9117 27.2844 15.9117C28.969 15.9117 30.4196 16.1976 31.6362 16.7696C32.8632 17.3415 33.8095 18.137 34.475 19.156C35.1405 20.175 35.4732 21.3657 35.4732 22.7279C35.4732 23.8613 35.2652 24.8387 34.8493 25.6602C34.4334 26.4817 33.8822 27.1836 33.1959 27.7659C32.5097 28.3482 31.7558 28.8577 30.9343 29.2945C30.1128 29.7312 29.2913 30.1367 28.4699 30.5111C27.6588 30.8854 26.9101 31.2702 26.2238 31.6653C25.5375 32.05 24.9864 32.4868 24.5705 32.9755C24.1545 33.4642 23.9465 34.0517 23.9465 34.738V34.9408H35.442V38.7778H18.8773Z" fill="#1B1B1B"/>
<rect x="21.2695" y="59.8247" width="11.3437" height="50.6407" fill="#C5EAD9"/>
</svg>
