<svg width="25" height="25" viewBox="0 0 25 25" fill="none" xmlns="http://www.w3.org/2000/svg">
<path d="M14.8862 4.76045C15.6314 3.95308 16.004 3.5494 16.3999 3.31393C17.3552 2.74576 18.5316 2.72809 19.5029 3.26732C19.9054 3.4908 20.2894 3.88312 21.0575 4.66776C21.8256 5.4524 22.2097 5.84472 22.4284 6.25593C22.9563 7.24812 22.939 8.44979 22.3828 9.4257C22.1523 9.83016 21.7571 10.2108 20.9668 10.972L11.5631 20.0293C10.0654 21.4719 9.3165 22.1932 8.38056 22.5587C7.44462 22.9243 6.4157 22.8974 4.35786 22.8436L4.07788 22.8363C3.45141 22.8199 3.13817 22.8117 2.95609 22.605C2.774 22.3984 2.79886 22.0793 2.84858 21.4412L2.87558 21.0947C3.01551 19.2985 3.08547 18.4005 3.43621 17.5932C3.78694 16.7859 4.39194 16.1305 5.60193 14.8195L14.8862 4.76045Z" stroke="white" stroke-width="1.5" stroke-linejoin="round"/>
<path d="M13.8125 4.875L20.8125 11.875" stroke="white" stroke-width="1.5" stroke-linejoin="round"/>
<path d="M14.8125 22.875L22.8125 22.875" stroke="white" stroke-width="1.5" stroke-linecap="round" stroke-linejoin="round"/>
</svg>
