<svg width="46" height="46" viewBox="0 0 46 46" fill="none" xmlns="http://www.w3.org/2000/svg">
<g id="Action/dashboard">
<path id="Icon" fill-rule="evenodd" clip-rule="evenodd" d="M10.7345 24.5334H19.9345C20.7778 24.5334 21.4678 23.8434 21.4678 23.0001V10.7334C21.4678 9.89007 20.7778 9.20007 19.9345 9.20007H10.7345C9.89117 9.20007 9.20117 9.89007 9.20117 10.7334V23.0001C9.20117 23.8434 9.89117 24.5334 10.7345 24.5334ZM10.7345 36.8001H19.9345C20.7778 36.8001 21.4678 36.1101 21.4678 35.2667V29.1334C21.4678 28.2901 20.7778 27.6001 19.9345 27.6001H10.7345C9.89117 27.6001 9.20117 28.2901 9.20117 29.1334V35.2667C9.20117 36.1101 9.89117 36.8001 10.7345 36.8001ZM26.0678 36.8001H35.2678C36.1112 36.8001 36.8012 36.1101 36.8012 35.2667V23.0001C36.8012 22.1567 36.1112 21.4667 35.2678 21.4667H26.0678C25.2245 21.4667 24.5345 22.1567 24.5345 23.0001V35.2667C24.5345 36.1101 25.2245 36.8001 26.0678 36.8001ZM24.5345 10.7334V16.8667C24.5345 17.7101 25.2245 18.4001 26.0678 18.4001H35.2678C36.1112 18.4001 36.8012 17.7101 36.8012 16.8667V10.7334C36.8012 9.89007 36.1112 9.20007 35.2678 9.20007H26.0678C25.2245 9.20007 24.5345 9.89007 24.5345 10.7334Z" fill="white"/>
</g>
</svg>
