<svg width="41" height="39" viewBox="0 0 41 39" fill="none" xmlns="http://www.w3.org/2000/svg">
<g id="store-01">
<path id="Vector 7270" d="M3.86328 16.395V25.761C3.86328 31.0593 3.86328 33.7084 5.50139 35.3543C7.1395 37.0003 9.776 37.0003 15.049 37.0003H26.2347C31.5077 37.0003 34.1442 37.0003 35.7823 35.3543C37.4204 33.7084 37.4204 31.0593 37.4204 25.761V16.395" stroke="white" stroke-width="2.54221" stroke-linecap="round"/>
<path id="Ellipse 1951" d="M26.2345 28.5708C24.9592 29.7083 22.9287 30.444 20.6417 30.444C18.3547 30.444 16.3242 29.7083 15.0488 28.5708" stroke="white" stroke-width="2.54221" stroke-linecap="round"/>
<path id="Vector" d="M3.70021 6.53256L2.4897 6.14479L2.4897 6.14479L3.70021 6.53256ZM2.42555 10.5117L3.63606 10.8995L2.42555 10.5117ZM37.5855 6.53256L36.375 6.92033V6.92034L37.5855 6.53256ZM38.8602 10.5117L40.0707 10.1239V10.1239L38.8602 10.5117ZM16.1853 15.1295C15.6933 14.6287 14.8885 14.6217 14.3878 15.1137C13.887 15.6057 13.88 16.4105 14.372 16.9113L16.1853 15.1295ZM26.9139 15.1284C26.422 14.6276 25.6172 14.6203 25.1164 15.1122C24.6155 15.6041 24.6083 16.4089 25.1002 16.9098L26.9139 15.1284ZM2.69972 14.6528L3.73185 13.9109L3.73185 13.9109L2.69972 14.6528ZM18.4186 12.9659C18.5939 12.2862 18.185 11.593 17.5053 11.4176C16.8255 11.2422 16.1323 11.6511 15.9569 12.3309L18.4186 12.9659ZM29.1457 12.9659C29.3211 12.2862 28.9122 11.593 28.2324 11.4176C27.5526 11.2422 26.8594 11.6511 26.6841 12.3309L29.1457 12.9659ZM38.586 14.6528L37.5539 13.9109V13.9109L38.586 14.6528ZM39.2363 13.0355L37.9803 12.8405V12.8405L39.2363 13.0355ZM2.04941 13.0355L0.79336 13.2306L2.04941 13.0355ZM5.83124 2.11634L5.06858 1.09946L5.06858 1.09946L5.83124 2.11634ZM2.4897 6.14479L1.21504 10.1239L3.63606 10.8995L4.91073 6.92034L2.4897 6.14479ZM36.375 6.92034L37.6497 10.8995L40.0707 10.1239L38.796 6.14479L36.375 6.92034ZM10.5314 2.68028H30.7543V0.138076H10.5314V2.68028ZM20.6416 16.9969C18.8952 16.9969 17.3188 16.283 16.1853 15.1295L14.372 16.9113C15.9644 18.5319 18.1866 19.5391 20.6416 19.5391V16.9969ZM31.3713 16.9969C29.6243 16.9969 28.0475 16.2826 26.9139 15.1284L25.1002 16.9098C26.6927 18.5313 28.9155 19.5391 31.3713 19.5391V16.9969ZM9.91446 16.9969C7.57752 16.9969 5.03874 15.729 3.73185 13.9109L1.6676 15.3947C3.47613 17.9107 6.80122 19.5391 9.91446 19.5391V16.9969ZM15.9569 12.3309C15.265 15.0132 12.8218 16.9969 9.91446 16.9969V19.5391C14.0058 19.5391 17.4432 16.747 18.4186 12.9659L15.9569 12.3309ZM26.6841 12.3309C25.9921 15.0132 23.5489 16.9969 20.6416 16.9969V19.5391C24.7329 19.5391 28.1703 16.747 29.1457 12.9659L26.6841 12.3309ZM37.5539 13.9109C36.247 15.729 33.7082 16.9969 31.3713 16.9969V19.5391C34.4845 19.5391 37.8096 17.9107 39.6181 15.3947L37.5539 13.9109ZM37.6497 10.8995C37.998 11.987 38.0702 12.2614 37.9803 12.8405L40.4924 13.2306C40.6848 11.9918 40.4121 11.1896 40.0707 10.1239L37.6497 10.8995ZM39.6181 15.3947C39.7772 15.1734 39.9838 14.8932 40.1479 14.5223C40.3139 14.1472 40.4134 13.7387 40.4924 13.2306L37.9803 12.8405C37.918 13.2413 37.8621 13.4054 37.8231 13.4936C37.7822 13.586 37.7342 13.66 37.5539 13.9109L39.6181 15.3947ZM38.796 6.14479C38.4087 4.93565 38.0882 3.92933 37.7369 3.14359C37.3737 2.331 36.9266 1.63158 36.2171 1.09946L34.6918 3.13323C34.9252 3.30827 35.1476 3.58061 35.4161 4.18116C35.6966 4.80857 35.9702 5.65678 36.375 6.92033L38.796 6.14479ZM30.7543 2.68028C32.0372 2.68028 32.8883 2.68236 33.5402 2.7598C34.1564 2.83301 34.4626 2.96135 34.6918 3.13323L36.2171 1.09946C35.5034 0.564169 34.712 0.338933 33.8401 0.235347C33.0038 0.135999 31.9763 0.138076 30.7543 0.138076V2.68028ZM1.21504 10.1239C0.873653 11.1896 0.600953 11.9918 0.79336 13.2306L3.30545 12.8405C3.21552 12.2614 3.2877 11.987 3.63606 10.8995L1.21504 10.1239ZM3.73185 13.9109C3.55151 13.66 3.50349 13.586 3.46262 13.4936C3.42357 13.4054 3.36771 13.2413 3.30545 12.8405L0.79336 13.2306C0.872272 13.7387 0.97185 14.1472 1.13781 14.5223C1.30195 14.8932 1.50851 15.1734 1.6676 15.3947L3.73185 13.9109ZM4.91073 6.92034C5.31549 5.65678 5.58911 4.80857 5.8696 4.18116C6.13809 3.58061 6.36051 3.30827 6.59391 3.13323L5.06858 1.09946C4.35909 1.63158 3.91205 2.331 3.54877 3.14359C3.19749 3.92933 2.87704 4.93565 2.4897 6.14479L4.91073 6.92034ZM10.5314 0.138076C9.3094 0.138076 8.28189 0.135999 7.44563 0.235347C6.5737 0.338933 5.7823 0.564169 5.06858 1.09946L6.59391 3.13323C6.82307 2.96135 7.12932 2.83301 7.74553 2.7598C8.3974 2.68236 9.24852 2.68028 10.5314 2.68028V0.138076Z" fill="white"/>
</g>
</svg>
