<svg width="41" height="39" viewBox="0 0 41 39" fill="none" xmlns="http://www.w3.org/2000/svg">
<g id="store-01">
<path id="Vector 7270" d="M3.86328 16.3949V25.7609C3.86328 31.0592 3.86328 33.7083 5.50139 35.3542C7.1395 37.0002 9.776 37.0002 15.049 37.0002H26.2347C31.5077 37.0002 34.1442 37.0002 35.7823 35.3542C37.4204 33.7083 37.4204 31.0592 37.4204 25.7609V16.3949" stroke="#ADADAD" stroke-width="2.54221" stroke-linecap="round"/>
<path id="Ellipse 1951" d="M26.2345 28.5707C24.9592 29.7081 22.9287 30.4439 20.6417 30.4439C18.3547 30.4439 16.3242 29.7081 15.0488 28.5707" stroke="#ADADAD" stroke-width="2.54221" stroke-linecap="round"/>
<path id="Vector" d="M3.70021 6.53244L2.4897 6.14467L2.4897 6.14467L3.70021 6.53244ZM2.42555 10.5116L3.63606 10.8993L2.42555 10.5116ZM37.5855 6.53244L36.375 6.92021V6.92021L37.5855 6.53244ZM38.8602 10.5116L40.0707 10.1238V10.1238L38.8602 10.5116ZM16.1853 15.1294C15.6933 14.6286 14.8885 14.6216 14.3878 15.1136C13.887 15.6056 13.88 16.4104 14.372 16.9111L16.1853 15.1294ZM26.9139 15.1283C26.422 14.6274 25.6172 14.6202 25.1164 15.1121C24.6155 15.604 24.6083 16.4088 25.1002 16.9097L26.9139 15.1283ZM2.69972 14.6527L3.73185 13.9108L3.73185 13.9108L2.69972 14.6527ZM18.4186 12.9658C18.5939 12.286 18.185 11.5928 17.5053 11.4175C16.8255 11.2421 16.1323 11.651 15.9569 12.3308L18.4186 12.9658ZM29.1457 12.9658C29.3211 12.286 28.9122 11.5928 28.2324 11.4175C27.5526 11.2421 26.8594 11.651 26.6841 12.3308L29.1457 12.9658ZM38.586 14.6527L37.5539 13.9108V13.9108L38.586 14.6527ZM39.2363 13.0354L37.9803 12.8403V12.8404L39.2363 13.0354ZM2.04941 13.0354L0.79336 13.2305L2.04941 13.0354ZM5.83124 2.11622L5.06858 1.09934L5.06858 1.09934L5.83124 2.11622ZM2.4897 6.14467L1.21504 10.1238L3.63606 10.8993L4.91073 6.92021L2.4897 6.14467ZM36.375 6.92021L37.6497 10.8993L40.0707 10.1238L38.796 6.14467L36.375 6.92021ZM10.5314 2.68016H30.7543V0.137954H10.5314V2.68016ZM20.6416 16.9968C18.8952 16.9968 17.3188 16.2829 16.1853 15.1294L14.372 16.9111C15.9644 18.5317 18.1866 19.539 20.6416 19.539V16.9968ZM31.3713 16.9968C29.6243 16.9968 28.0475 16.2825 26.9139 15.1283L25.1002 16.9097C26.6927 18.5311 28.9155 19.539 31.3713 19.539V16.9968ZM9.91446 16.9968C7.57752 16.9968 5.03874 15.7289 3.73185 13.9108L1.6676 15.3946C3.47613 17.9106 6.80122 19.539 9.91446 19.539V16.9968ZM15.9569 12.3308C15.265 15.0131 12.8218 16.9968 9.91446 16.9968V19.539C14.0058 19.539 17.4432 16.7469 18.4186 12.9658L15.9569 12.3308ZM26.6841 12.3308C25.9921 15.0131 23.5489 16.9968 20.6416 16.9968V19.539C24.7329 19.539 28.1703 16.7469 29.1457 12.9658L26.6841 12.3308ZM37.5539 13.9108C36.247 15.7289 33.7082 16.9968 31.3713 16.9968V19.539C34.4845 19.539 37.8096 17.9106 39.6181 15.3946L37.5539 13.9108ZM37.6497 10.8993C37.998 11.9869 38.0702 12.2613 37.9803 12.8403L40.4924 13.2305C40.6848 11.9917 40.4121 11.1895 40.0707 10.1238L37.6497 10.8993ZM39.6181 15.3946C39.7772 15.1733 39.9838 14.8931 40.1479 14.5221C40.3139 14.1471 40.4134 13.7386 40.4924 13.2305L37.9803 12.8404C37.918 13.2412 37.8621 13.4053 37.8231 13.4935C37.7822 13.5859 37.7342 13.6599 37.5539 13.9108L39.6181 15.3946ZM38.796 6.14467C38.4087 4.93552 38.0882 3.92921 37.7369 3.14347C37.3737 2.33088 36.9266 1.63146 36.2171 1.09934L34.6918 3.1331C34.9252 3.30815 35.1476 3.58049 35.4161 4.18104C35.6966 4.80845 35.9702 5.65666 36.375 6.92021L38.796 6.14467ZM30.7543 2.68016C32.0372 2.68016 32.8883 2.68224 33.5402 2.75968C34.1564 2.83289 34.4626 2.96123 34.6918 3.1331L36.2171 1.09934C35.5034 0.564047 34.712 0.338811 33.8401 0.235225C33.0038 0.135877 31.9763 0.137954 30.7543 0.137954V2.68016ZM1.21504 10.1238C0.873653 11.1895 0.600953 11.9917 0.79336 13.2305L3.30545 12.8404C3.21552 12.2613 3.2877 11.9868 3.63606 10.8993L1.21504 10.1238ZM3.73185 13.9108C3.55151 13.6599 3.50349 13.5859 3.46262 13.4935C3.42357 13.4053 3.36771 13.2412 3.30545 12.8404L0.79336 13.2305C0.872272 13.7386 0.97185 14.1471 1.13781 14.5221C1.30195 14.8931 1.50851 15.1733 1.6676 15.3946L3.73185 13.9108ZM4.91073 6.92021C5.31549 5.65666 5.58911 4.80845 5.8696 4.18104C6.13809 3.58049 6.36051 3.30815 6.59391 3.1331L5.06858 1.09934C4.35909 1.63146 3.91205 2.33088 3.54877 3.14347C3.19749 3.92921 2.87704 4.93552 2.4897 6.14467L4.91073 6.92021ZM10.5314 0.137954C9.3094 0.137954 8.28189 0.135877 7.44563 0.235225C6.5737 0.338811 5.7823 0.564047 5.06858 1.09934L6.59391 3.1331C6.82307 2.96123 7.12932 2.83289 7.74553 2.75968C8.3974 2.68224 9.24852 2.68016 10.5314 2.68016V0.137954Z" fill="#ADADAD"/>
</g>
</svg>
