<svg width="59" height="59" viewBox="0 0 59 59" fill="none" xmlns="http://www.w3.org/2000/svg">
<path d="M3 36.1106H11.2857C14.0326 36.1106 16.667 37.2018 18.6093 39.1441C20.5517 41.0865 21.6429 43.7209 21.6429 46.4677" stroke="#000001" stroke-width="4.14286" stroke-linecap="round" stroke-linejoin="round"/>
<path d="M9.21429 46.4678H29.9286C32.1261 46.4678 34.2336 47.3407 35.7875 48.8946C37.3413 50.4485 38.2143 52.556 38.2143 54.7535C38.2143 55.3029 37.996 55.8297 37.6076 56.2182C37.2191 56.6067 36.6922 56.8249 36.1429 56.8249H3" stroke="#000001" stroke-width="4.14286" stroke-linecap="round" stroke-linejoin="round"/>
<path d="M37.178 36.1105L20.6066 20.7819C11.5751 11.7091 24.7494 -5.85664 37.178 8.35336C49.6066 -5.81521 62.9051 11.7505 53.7494 20.7819L37.178 36.1105Z" fill="#3BB77E" stroke="black" stroke-width="4.14286" stroke-linecap="round" stroke-linejoin="round"/>
</svg>
