<svg width="64" height="61" viewBox="0 0 64 61" fill="none" xmlns="http://www.w3.org/2000/svg">
<path d="M27.75 20.7347L17.625 3.22974C13.1814 5.78997 9.49036 9.47515 6.92304 13.9146C4.35572 18.3541 3.00268 23.3914 3 28.5197H23.25C23.2516 26.9415 23.6682 25.3914 24.4581 24.025C25.2479 22.6586 26.3832 21.5239 27.75 20.7347Z" fill="#3BB77E" stroke="#000001" stroke-width="4.5" stroke-linecap="round" stroke-linejoin="round"/>
<path d="M41.25 28.5197H61.5C61.4973 23.3914 60.1443 18.3541 57.577 13.9146C55.0096 9.47515 51.3186 5.78997 46.875 3.22974L36.75 20.7347C38.1168 21.5239 39.2521 22.6586 40.0419 24.025C40.8318 25.3914 41.2484 26.9415 41.25 28.5197Z" fill="#3BB77E" stroke="#000001" stroke-width="4.5" stroke-linecap="round" stroke-linejoin="round"/>
<path d="M32.25 37.5201C30.6734 37.531 29.1216 37.1275 27.75 36.3501L17.625 53.8551C22.073 56.4179 27.1165 57.7669 32.25 57.7669C37.3835 57.7669 42.427 56.4179 46.875 53.8551L36.75 36.3501C35.3784 37.1275 33.8266 37.531 32.25 37.5201V37.5201Z" fill="#3BB77E" stroke="#000001" stroke-width="4.5" stroke-linecap="round" stroke-linejoin="round"/>
</svg>
