<svg width="21" height="21" viewBox="0 0 21 21" fill="none" xmlns="http://www.w3.org/2000/svg">
<path fill-rule="evenodd" clip-rule="evenodd" d="M16.8379 10.1912C16.8379 10.6473 16.4681 11.0171 16.012 11.0171L4.44994 11.0171C3.99383 11.0171 3.62408 10.6473 3.62408 10.1912C3.62408 9.73511 3.99383 9.36536 4.44994 9.36536L16.012 9.36536C16.4681 9.36536 16.8379 9.73511 16.8379 10.1912Z" fill="white"/>
<path fill-rule="evenodd" clip-rule="evenodd" d="M10.8148 16.5562C10.4922 16.8787 9.96932 16.8787 9.6468 16.5562L3.86576 10.7752C3.54324 10.4526 3.54324 9.92973 3.86576 9.60721L9.6468 3.82617C9.96932 3.50365 10.4922 3.50365 10.8148 3.82617C11.1373 4.14869 11.1373 4.6716 10.8148 4.99412L5.61768 10.1912L10.8148 15.3883C11.1373 15.7108 11.1373 16.2337 10.8148 16.5562Z" fill="white"/>
</svg>
