<svg width="36" height="20" viewBox="0 0 36 20" fill="none" xmlns="http://www.w3.org/2000/svg">
<path fill-rule="evenodd" clip-rule="evenodd" d="M0.30542 9.64017C0.30542 9.36325 0.437424 9.09768 0.672392 8.90188C0.90736 8.70607 1.22605 8.59606 1.55834 8.59606H31.1097L23.2238 2.02659C22.9886 1.83053 22.8564 1.56463 22.8564 1.28736C22.8564 1.0101 22.9886 0.744193 23.2238 0.548139C23.4591 0.352085 23.7782 0.241943 24.1109 0.241943C24.4436 0.241943 24.7627 0.352085 24.998 0.548139L35.0213 8.90094C35.138 8.99793 35.2306 9.11315 35.2938 9.24C35.3569 9.36685 35.3894 9.50283 35.3894 9.64017C35.3894 9.7775 35.3569 9.91349 35.2938 10.0403C35.2306 10.1672 35.138 10.2824 35.0213 10.3794L24.998 18.7322C24.7627 18.9282 24.4436 19.0384 24.1109 19.0384C23.7782 19.0384 23.4591 18.9282 23.2238 18.7322C22.9886 18.5361 22.8564 18.2702 22.8564 17.993C22.8564 17.7157 22.9886 17.4498 23.2238 17.2537L31.1097 10.6843H1.55834C1.22605 10.6843 0.90736 10.5743 0.672392 10.3785C0.437424 10.1826 0.30542 9.91708 0.30542 9.64017Z" fill="white"/>
</svg>
