<svg width="17" height="17" viewBox="0 0 17 17" fill="none" xmlns="http://www.w3.org/2000/svg">
<g clip-path="url(#clip0_225_509)">
<path fill-rule="evenodd" clip-rule="evenodd" d="M5.45874 14.1298C5.45874 13.4027 6.0482 12.8132 6.77533 12.8132C7.50247 12.8132 8.09193 13.4027 8.09193 14.1298C8.09193 14.857 7.50247 15.4464 6.77533 15.4464C6.0482 15.4464 5.45874 14.857 5.45874 14.1298Z" fill="white"/>
<path fill-rule="evenodd" clip-rule="evenodd" d="M12.7 14.1298C12.7 13.4027 13.2894 12.8132 14.0165 12.8132C14.7437 12.8132 15.3331 13.4027 15.3331 14.1298C15.3331 14.857 14.7437 15.4464 14.0165 15.4464C13.2894 15.4464 12.7 14.857 12.7 14.1298Z" fill="white"/>
<path fill-rule="evenodd" clip-rule="evenodd" d="M0.850586 0.963961C0.850586 0.600394 1.14532 0.305664 1.50888 0.305664H4.14207C4.45583 0.305664 4.72599 0.527105 4.78757 0.834766L5.34045 3.59715H15.9914C16.1876 3.59715 16.3736 3.68465 16.4986 3.83582C16.6237 3.98698 16.6748 4.18605 16.6381 4.37876L15.5838 9.90681C15.4935 10.3614 15.2462 10.7698 14.8852 11.0604C14.5259 11.3496 14.0768 11.5039 13.6159 11.4967H7.22859C6.76761 11.5039 6.31853 11.3496 5.95929 11.0604C5.59839 10.7699 5.35112 10.3618 5.26073 9.90736C5.2607 9.90718 5.26077 9.90755 5.26073 9.90736L4.16102 4.41291C4.15656 4.39474 4.15285 4.37627 4.14994 4.35753L3.60248 1.62226H1.50888C1.14532 1.62226 0.850586 1.32753 0.850586 0.963961ZM5.60397 4.91374L6.55199 9.65031C6.58209 9.80185 6.66453 9.93797 6.78488 10.0349C6.90523 10.1317 7.05582 10.1832 7.21029 10.1802L7.2229 10.1801H13.6215L13.6342 10.1802C13.7886 10.1832 13.9392 10.1317 14.0596 10.0349C14.1794 9.93842 14.2616 9.80312 14.292 9.65242L15.1957 4.91374H5.60397Z" fill="white"/>
</g>
<defs>
<clipPath id="clip0_225_509">
<rect width="15.7991" height="15.7991" fill="white" transform="translate(0.850586 0.305664)"/>
</clipPath>
</defs>
</svg>
