<svg width="30" height="26" viewBox="0 0 30 26" fill="none" xmlns="http://www.w3.org/2000/svg">
<path fill-rule="evenodd" clip-rule="evenodd" d="M28.0684 13.0001C28.0684 13.2156 27.9698 13.4222 27.7943 13.5746C27.6189 13.727 27.3809 13.8126 27.1328 13.8126L5.06555 13.8126L10.9543 18.9248C11.1299 19.0774 11.2286 19.2843 11.2286 19.5001C11.2286 19.7158 11.1299 19.9228 10.9543 20.0753C10.7786 20.2279 10.5403 20.3136 10.2918 20.3136C10.0434 20.3136 9.80511 20.2279 9.62943 20.0753L2.14458 13.5753C2.05745 13.4998 1.98833 13.4102 1.94116 13.3115C1.89399 13.2128 1.86971 13.1069 1.86971 13.0001C1.86971 12.8932 1.89399 12.7874 1.94116 12.6887C1.98833 12.59 2.05745 12.5003 2.14458 12.4248L9.62943 5.92482C9.80511 5.77226 10.0434 5.68655 10.2918 5.68655C10.5403 5.68655 10.7786 5.77226 10.9543 5.92482C11.1299 6.07739 11.2286 6.28431 11.2286 6.50007C11.2286 6.71583 11.1299 6.92276 10.9543 7.07532L5.06555 12.1876L27.1328 12.1876C27.3809 12.1876 27.6189 12.2732 27.7943 12.4255C27.9698 12.5779 28.0684 12.7846 28.0684 13.0001Z" fill="#3BB77E"/>
</svg>
