<svg width="20" height="16" viewBox="0 0 20 16" fill="none" xmlns="http://www.w3.org/2000/svg">
<path d="M1.16602 8.10027C1.16602 4.9459 1.16602 3.36871 2.1048 2.31573C2.25495 2.14731 2.42044 1.99155 2.59938 1.85023C3.71818 0.966675 5.39394 0.966675 8.74546 0.966675H11.4206C14.7721 0.966675 16.4478 0.966675 17.5666 1.85023C17.7456 1.99155 17.9111 2.14731 18.0612 2.31573C19 3.36871 19 4.9459 19 8.10027C19 11.2546 19 12.8318 18.0612 13.8848C17.9111 14.0532 17.7456 14.209 17.5666 14.3503C16.4478 15.2339 14.7721 15.2339 11.4206 15.2339H8.74546C5.39394 15.2339 3.71818 15.2339 2.59938 14.3503C2.42044 14.209 2.25495 14.0532 2.1048 13.8848C1.16602 12.8318 1.16602 11.2546 1.16602 8.10027Z" stroke="white" stroke-width="1.06081" stroke-linecap="round" stroke-linejoin="round"/>
<path d="M8.29883 11.667H9.63638" stroke="white" stroke-width="1.06081" stroke-miterlimit="10" stroke-linecap="round" stroke-linejoin="round"/>
<path d="M12.3125 11.667L15.4334 11.667" stroke="white" stroke-width="1.06081" stroke-miterlimit="10" stroke-linecap="round" stroke-linejoin="round"/>
<path d="M1.16602 5.42517H19" stroke="white" stroke-width="1.06081" stroke-linejoin="round"/>
</svg>
