<svg width="15" height="19" viewBox="0 0 15 19" fill="none" xmlns="http://www.w3.org/2000/svg">
<path d="M12.9785 11.5647L12.9792 11.5628C13.9119 10.334 14.4159 8.83315 14.4136 7.29044C14.4114 5.40177 13.6602 3.59109 12.3247 2.2556C10.9892 0.920112 9.1785 0.168854 7.28983 0.166626M12.9785 11.5647L12.9735 11.5609L12.5812 11.2612L12.5812 11.2612L12.5812 11.2612L12.5811 11.2614L12.5807 11.2619L12.5791 11.264L12.5729 11.2721L12.5506 11.3012L12.5306 11.3273M12.9785 11.5647C12.9785 11.5647 12.7836 11.8199 12.7551 11.8542M12.9785 11.5647L12.5042 11.4067L12.5048 11.4047L12.5306 11.3273M12.5306 11.3273L12.5309 11.3263L12.5809 11.2605C13.4475 10.1188 13.9157 8.72444 13.9136 7.29115L13.9136 7.29103C13.9116 5.53476 13.213 3.85102 11.9711 2.60916C10.7294 1.36743 9.04588 0.668854 7.28983 0.666626M12.5306 11.3273L12.481 11.392L12.4068 11.4882L12.3796 11.5231C12.3745 11.5296 12.3717 11.5332 12.3706 11.5346M7.28983 0.666626C7.29003 0.666626 7.29023 0.666626 7.29042 0.666626L7.28983 0.166626M7.28983 0.666626C7.28964 0.666626 7.28944 0.666626 7.28924 0.666626L7.28983 0.166626M7.28983 0.666626C5.53378 0.668854 3.85028 1.36743 2.60855 2.60916C1.36669 3.85102 0.668095 5.53476 0.666023 7.29103L0.666023 7.29117C0.663921 8.72512 1.13231 10.1202 1.99933 11.2623M7.28983 0.166626C5.40117 0.168854 3.59049 0.920112 2.255 2.2556C0.919509 3.59109 0.168251 5.40177 0.166023 7.29044C0.163761 8.83386 0.667915 10.3354 1.60115 11.5647M1.99933 11.2623L1.60115 11.5647M1.99933 11.2623C1.99935 11.2623 1.99937 11.2624 1.99939 11.2624M1.99933 11.2623L1.99935 11.2623L1.99939 11.2624M1.60115 11.5647L1.99939 11.2624M1.60115 11.5647C1.60115 11.5647 1.79543 11.8205 1.82717 11.8574L6.96206 17.9134L7.28983 17.5268M1.99939 11.2624L1.99944 11.2625L1.99984 11.263L2.00142 11.2651L2.00754 11.2731L2.02973 11.3023L2.09914 11.3931C2.12515 11.4271 2.1516 11.4614 2.17323 11.4893C2.18983 11.5106 2.19965 11.523 2.20396 11.5285C2.20629 11.5314 2.20701 11.5323 2.20633 11.5315L2.20854 11.5341L2.20853 11.5341L7.28983 17.5268M7.28983 17.5268L12.3704 11.5348M7.28983 17.5268L7.6176 17.9134L12.7551 11.8542M12.3704 11.5348L12.3706 11.5346M12.3704 11.5348L12.7551 11.8542M12.3704 11.5348L12.3706 11.5346M12.7551 11.8542L12.3737 11.5309L12.3706 11.5346M10.3803 7.29106V7.29044C10.3803 6.6792 10.1991 6.08169 9.85947 5.57346C9.51988 5.06523 9.03722 4.66912 8.47251 4.43521C7.9078 4.2013 7.2864 4.14009 6.68691 4.25934C6.08742 4.37859 5.53675 4.67293 5.10454 5.10514C4.67233 5.53735 4.37799 6.08802 4.25874 6.68751C4.13949 7.28701 4.20069 7.9084 4.43461 8.47311C4.66852 9.03782 5.06463 9.52049 5.57286 9.86007C6.08108 10.1997 6.67859 10.3809 7.28983 10.3809H7.29046C8.10962 10.3799 8.89495 10.054 9.47418 9.47479C10.0534 8.89555 10.3793 8.11023 10.3803 7.29106Z" stroke="white"/>
</svg>
